<?xml version="1.0" encoding="utf-8"?>
<!-- Generator: Adobe Illustrator 27.0.0, SVG Export Plug-In . SVG Version: 6.00 Build 0)  -->
<svg version="1.1" id="Layer_1" xmlns="http://www.w3.org/2000/svg" xmlns:xlink="http://www.w3.org/1999/xlink" x="0px" y="0px"
	 viewBox="0 0 141.7 141.7" style="enable-background:new 0 0 141.7 141.7;" xml:space="preserve">
<style type="text/css">
	.st0{fill:#3FA8AE;}
	.st1{fill:#FF009C;}
	.st2{fill:none;stroke:#000000;stroke-width:0.5669;stroke-linecap:round;stroke-linejoin:round;stroke-miterlimit:22.9256;}
	.st3{fill-rule:evenodd;clip-rule:evenodd;fill:#FFFFFF;}
	.st4{fill-rule:evenodd;clip-rule:evenodd;}
	.st5{fill-rule:evenodd;clip-rule:evenodd;fill:#078F96;}
	.st6{fill-rule:evenodd;clip-rule:evenodd;fill:#45ABB1;}
	.st7{fill-rule:evenodd;clip-rule:evenodd;fill:#83C7CB;}
	.st8{fill:#078F96;}
	.st9{fill-rule:evenodd;clip-rule:evenodd;fill:#5B146F;}
	.st10{fill-rule:evenodd;clip-rule:evenodd;fill:#AC0A85;}
	.st11{fill-rule:evenodd;clip-rule:evenodd;fill:#FF009C;}
	.st12{fill:#5B146F;}
	.st13{fill:#AC0A85;}
	.st14{fill:#45ABB1;}
	.st15{fill:#83C7CB;}
	
		.st16{clip-path:url(#SVGID_00000143595473045364663030000010655127481039972005_);fill:url(#SVGID_00000097499653403127569610000008876884499031627190_);}
	
		.st17{clip-path:url(#SVGID_00000132771651039253859380000007912520929963817873_);fill:url(#SVGID_00000157272318871692846920000015808907701169074072_);}
	
		.st18{clip-path:url(#SVGID_00000124871394729040120270000016441655917098008765_);fill:url(#SVGID_00000068638174639099434000000011442841718135164605_);}
</style>
<g>
	<path class="st0" d="M93.3,71.4L93.3,71.4C76.7,50,59.9,28.7,43.3,7.3c-1.1-3.7,0.2-5.9,3.6-7h39.9l30.8,41.1l24.2,30.1L117.5,102
		v0l-29.6,39.4c-13.5,0-27,0-40.4-0.1c-3.4-1.3-4.8-3.3-3.7-6.3L93.3,71.4z"/>
	<path d="M36.5,71.2L36.5,71.2c-12-15.4-24.2-30.8-36.2-46.3c-0.8-2.7,0.2-4.3,2.6-5.1h28.8L54,49.6l17.5,21.8L54,93.3v0l-21.4,28.5
		c-9.7,0-19.5,0-29.2-0.1c-2.5-0.9-3.5-2.4-2.7-4.5L36.5,71.2z"/>
</g>
</svg>
