<svg width="38" height="48" viewBox="0 0 38 48" fill="none" xmlns="http://www.w3.org/2000/svg">
<path id="Vector" d="M29.2632 45.5566C29.2632 45.9953 29.0857 46.416 28.7699 46.7261C28.4541 47.0363 28.0257 47.2106 27.579 47.2106H10.737C10.2904 47.2106 9.86198 47.0363 9.54613 46.7261C9.23028 46.416 9.05284 45.9953 9.05284 45.5566C9.05284 45.118 9.23028 44.6973 9.54613 44.3871C9.86198 44.0769 10.2904 43.9027 10.737 43.9027H27.579C28.0257 43.9027 28.4541 44.0769 28.7699 44.3871C29.0857 44.6973 29.2632 45.118 29.2632 45.5566ZM37.6842 19.0935C37.6914 21.8507 37.0572 24.5731 35.8298 27.0529C34.6024 29.5327 32.8144 31.7044 30.6021 33.4022C30.1885 33.7136 29.8528 34.1137 29.6207 34.572C29.3887 35.0303 29.2664 35.5346 29.2632 36.0464V37.2869C29.2632 38.1642 28.9083 39.0056 28.2766 39.6259C27.6449 40.2463 26.7881 40.5948 25.8948 40.5948H12.4212C11.5279 40.5948 10.6711 40.2463 10.0394 39.6259C9.40773 39.0056 9.05284 38.1642 9.05284 37.2869V36.0464C9.0525 35.5407 8.93409 35.0418 8.70672 34.5881C8.47935 34.1343 8.14908 33.7378 7.74128 33.4291C5.53456 31.7413 3.74773 29.5827 2.51601 27.1166C1.2843 24.6505 0.64 21.9415 0.631867 19.1948C0.577131 9.34139 8.68653 1.13574 18.7117 0.900056C21.1819 0.841599 23.639 1.269 25.9385 2.15709C28.238 3.04519 30.3333 4.37604 32.1011 6.07131C33.869 7.76658 35.2737 9.79202 36.2325 12.0284C37.1913 14.2648 37.6849 16.6669 37.6842 19.0935ZM34.3158 19.0935C34.3164 17.108 33.9125 15.1425 33.1279 13.3127C32.3434 11.4828 31.194 9.82562 29.7474 8.43856C28.3009 7.05151 26.5864 5.96265 24.7049 5.2361C22.8234 4.50954 20.8129 4.15997 18.7917 4.20795C10.5813 4.39815 3.95605 11.1111 4.00026 19.1741C4.00795 21.4205 4.53582 23.6358 5.54393 25.6524C6.55205 27.6689 8.01399 29.4339 9.81915 30.8137C10.6306 31.4332 11.287 32.2268 11.738 33.1338C12.189 34.0408 12.4227 35.0371 12.4212 36.0464V37.2869H25.8948V36.0464C25.8971 35.0342 26.1349 34.0359 26.5898 33.1276C27.0448 32.2193 27.705 31.4251 28.52 30.8055C30.3307 29.4158 31.7942 27.6382 32.7987 25.6084C33.8031 23.5786 34.322 21.3503 34.3158 19.0935ZM30.9242 17.1625C30.4875 14.7669 29.3139 12.5603 27.5614 10.8397C25.8089 9.119 23.5617 7.96694 21.1222 7.53858C20.9041 7.50248 20.6808 7.50891 20.4652 7.55753C20.2496 7.60614 20.0459 7.69598 19.8657 7.82192C19.6854 7.94786 19.5322 8.10743 19.4148 8.29152C19.2973 8.47561 19.2179 8.68061 19.1812 8.89482C19.1444 9.10903 19.151 9.32826 19.2005 9.53999C19.25 9.75171 19.3414 9.95179 19.4697 10.1288C19.5979 10.3058 19.7604 10.4563 19.9479 10.5716C20.1353 10.6869 20.3441 10.7649 20.5622 10.801C24.0506 11.3778 27.0106 14.2846 27.6021 17.7166C27.6688 18.1018 27.8722 18.4514 28.1762 18.7034C28.4802 18.9554 28.8653 19.0936 29.2632 19.0935C29.3584 19.0929 29.4534 19.0853 29.5474 19.0707C29.9876 18.9969 30.38 18.7544 30.6382 18.3966C30.8964 18.0387 30.9993 17.5948 30.9242 17.1625Z" fill="#078F96"/>
</svg>
