<svg width="51" height="50" viewBox="0 0 51 50" fill="none" xmlns="http://www.w3.org/2000/svg">
<g id="Certificate">
<path id="Vector" d="M49.0598 25.001C49.0615 23.2178 48.6244 21.4615 47.787 19.887C46.9497 18.3126 45.7379 16.9684 44.2584 15.9728C42.7789 14.9773 41.0771 14.3611 39.3033 14.1785C37.5294 13.9959 35.7378 14.2525 34.0865 14.9257C32.4353 15.599 30.975 16.6681 29.8344 18.039C28.6939 19.4098 27.9082 21.0402 27.5465 22.7864C27.1848 24.5326 27.2583 26.3409 27.7605 28.052C28.2627 29.7631 29.1782 31.3244 30.4262 32.5981V43.6347C30.426 43.8995 30.4935 44.16 30.6224 44.3913C30.7512 44.6227 30.9371 44.8172 31.1624 44.9565C31.3876 45.0958 31.6447 45.1751 31.9093 45.187C32.1738 45.1989 32.437 45.1429 32.6739 45.0244L38.1902 42.2643L43.7065 45.0244C43.9434 45.1429 44.2066 45.1989 44.4711 45.187C44.7357 45.1751 44.9928 45.0958 45.218 44.9565C45.4433 44.8172 45.6292 44.6227 45.758 44.3913C45.8869 44.16 45.9544 43.8995 45.9542 43.6347V32.5981C47.9458 30.5711 49.0611 27.8427 49.0598 25.001ZM38.1902 17.237C39.7258 17.237 41.2269 17.6923 42.5037 18.5455C43.7805 19.3986 44.7756 20.6112 45.3632 22.0298C45.9509 23.4485 46.1046 25.0096 45.805 26.5157C45.5055 28.0218 44.766 29.4052 43.6802 30.491C42.5944 31.5768 41.211 32.3163 39.7049 32.6158C38.1988 32.9154 36.6377 32.7617 35.219 32.174C33.8004 31.5864 32.5878 30.5913 31.7347 29.3145C30.8815 28.0377 30.4262 26.5366 30.4262 25.001C30.4262 22.9419 31.2442 20.9671 32.7002 19.511C34.1563 18.055 36.1311 17.237 38.1902 17.237ZM38.8851 39.1393C38.6694 39.0313 38.4314 38.9751 38.1902 38.9751C37.949 38.9751 37.7111 39.0313 37.4953 39.1393L33.5318 41.123V34.8206C34.9874 35.5119 36.5787 35.8706 38.1902 35.8706C39.8017 35.8706 41.393 35.5119 42.8486 34.8206V41.123L38.8851 39.1393ZM27.3206 37.4234C27.3206 37.8353 27.157 38.2302 26.8658 38.5214C26.5746 38.8126 26.1796 38.9762 25.7678 38.9762H8.68693C7.86327 38.9762 7.07335 38.649 6.49094 38.0666C5.90852 37.4842 5.58133 36.6943 5.58133 35.8706V11.0258C5.58133 10.2021 5.90852 9.41219 6.49094 8.82978C7.07335 8.24736 7.86327 7.92017 8.68693 7.92017H42.8486C43.6723 7.92017 44.4622 8.24736 45.0446 8.82978C45.627 9.41219 45.9542 10.2021 45.9542 11.0258C45.9542 11.4376 45.7906 11.8326 45.4994 12.1238C45.2082 12.415 44.8133 12.5786 44.4014 12.5786C43.9896 12.5786 43.5946 12.415 43.3034 12.1238C43.0122 11.8326 42.8486 11.4376 42.8486 11.0258H8.68693V35.8706H25.7678C26.1796 35.8706 26.5746 36.0342 26.8658 36.3254C27.157 36.6166 27.3206 37.0116 27.3206 37.4234ZM24.215 26.5538C24.215 26.9656 24.0514 27.3606 23.7602 27.6518C23.469 27.943 23.074 28.1066 22.6622 28.1066H14.8981C14.4863 28.1066 14.0914 27.943 13.8002 27.6518C13.5089 27.3606 13.3453 26.9656 13.3453 26.5538C13.3453 26.142 13.5089 25.747 13.8002 25.4558C14.0914 25.1646 14.4863 25.001 14.8981 25.001H22.6622C23.074 25.001 23.469 25.1646 23.7602 25.4558C24.0514 25.747 24.215 26.142 24.215 26.5538ZM24.215 20.3426C24.215 20.7544 24.0514 21.1494 23.7602 21.4406C23.469 21.7318 23.074 21.8954 22.6622 21.8954H14.8981C14.4863 21.8954 14.0914 21.7318 13.8002 21.4406C13.5089 21.1494 13.3453 20.7544 13.3453 20.3426C13.3453 19.9308 13.5089 19.5358 13.8002 19.2446C14.0914 18.9534 14.4863 18.7898 14.8981 18.7898H22.6622C23.074 18.7898 23.469 18.9534 23.7602 19.2446C24.0514 19.5358 24.215 19.9308 24.215 20.3426Z" fill="#078F96"/>
</g>
</svg>
