<svg width="52" height="44" viewBox="0 0 52 44" fill="none" xmlns="http://www.w3.org/2000/svg">
<path id="Vector" d="M51.2909 20.0538C51.2928 17.989 50.7867 15.9554 49.8171 14.1324C48.8476 12.3094 47.4444 10.7529 45.7313 9.60014C44.0182 8.44742 42.0478 7.73389 39.9938 7.52245C37.9398 7.31101 35.8654 7.60817 33.9534 8.38771C32.0414 9.16725 30.3505 10.4052 29.0299 11.9925C27.7093 13.5798 26.7995 15.4676 26.3807 17.4895C25.9619 19.5114 26.047 21.6053 26.6285 23.5866C27.21 25.5678 28.27 27.3756 29.7151 28.8505V41.6296C29.7149 41.9363 29.7931 42.2379 29.9423 42.5057C30.0915 42.7736 30.3067 42.9989 30.5675 43.1602C30.8283 43.3214 31.126 43.4133 31.4324 43.4271C31.7387 43.4408 32.0435 43.376 32.3177 43.2388L38.705 40.0429L45.0923 43.2388C45.3666 43.376 45.6713 43.4408 45.9777 43.4271C46.284 43.4133 46.5817 43.3214 46.8425 43.1602C47.1033 42.9989 47.3185 42.7736 47.4677 42.5057C47.6169 42.2379 47.6951 41.9363 47.6949 41.6296V28.8505C50.001 26.5034 51.2924 23.3442 51.2909 20.0538ZM38.705 11.0639C40.483 11.0639 42.2212 11.5912 43.6995 12.579C45.1779 13.5668 46.3302 14.9708 47.0106 16.6135C47.691 18.2562 47.8691 20.0638 47.5222 21.8077C47.1753 23.5515 46.3191 25.1534 45.0618 26.4107C43.8046 27.6679 42.2027 28.5241 40.4589 28.871C38.715 29.2179 36.9074 29.0398 35.2647 28.3594C33.622 27.679 32.218 26.5267 31.2302 25.0484C30.2423 23.57 29.7151 21.8319 29.7151 20.0538C29.7151 17.6695 30.6622 15.3829 32.3482 13.697C34.0341 12.0111 36.3207 11.0639 38.705 11.0639ZM39.5096 36.4245C39.2598 36.2995 38.9843 36.2344 38.705 36.2344C38.4257 36.2344 38.1502 36.2995 37.9004 36.4245L33.3111 38.7214V31.4238C34.9965 32.2244 36.8391 32.6397 38.705 32.6397C40.5709 32.6397 42.4135 32.2244 44.099 31.4238V38.7214L39.5096 36.4245ZM26.1191 34.4377C26.1191 34.9145 25.9297 35.3719 25.5925 35.7091C25.2553 36.0462 24.798 36.2357 24.3211 36.2357H4.54332C3.58961 36.2357 2.67497 35.8568 2.00059 35.1824C1.32622 34.5081 0.947357 33.5934 0.947357 32.6397V3.87197C0.947357 2.91826 1.32622 2.00361 2.00059 1.32924C2.67497 0.654861 3.58961 0.276001 4.54332 0.276001H44.099C45.0527 0.276001 45.9673 0.654861 46.6417 1.32924C47.3161 2.00361 47.6949 2.91826 47.6949 3.87197C47.6949 4.34882 47.5055 4.80615 47.1683 5.14333C46.8311 5.48052 46.3738 5.66995 45.8969 5.66995C45.4201 5.66995 44.9628 5.48052 44.6256 5.14333C44.2884 4.80615 44.099 4.34882 44.099 3.87197H4.54332V32.6397H24.3211C24.798 32.6397 25.2553 32.8291 25.5925 33.1663C25.9297 33.5035 26.1191 33.9608 26.1191 34.4377ZM22.5232 21.8518C22.5232 22.3287 22.3337 22.786 21.9965 23.1232C21.6594 23.4604 21.202 23.6498 20.7252 23.6498H11.7353C11.2584 23.6498 10.8011 23.4604 10.4639 23.1232C10.1267 22.786 9.93727 22.3287 9.93727 21.8518C9.93727 21.375 10.1267 20.9176 10.4639 20.5804C10.8011 20.2432 11.2584 20.0538 11.7353 20.0538H20.7252C21.202 20.0538 21.6594 20.2432 21.9965 20.5804C22.3337 20.9176 22.5232 21.375 22.5232 21.8518ZM22.5232 14.6599C22.5232 15.1367 22.3337 15.594 21.9965 15.9312C21.6594 16.2684 21.202 16.4579 20.7252 16.4579H11.7353C11.2584 16.4579 10.8011 16.2684 10.4639 15.9312C10.1267 15.594 9.93727 15.1367 9.93727 14.6599C9.93727 14.183 10.1267 13.7257 10.4639 13.3885C10.8011 13.0513 11.2584 12.8619 11.7353 12.8619H20.7252C21.202 12.8619 21.6594 13.0513 21.9965 13.3885C22.3337 13.7257 22.5232 14.183 22.5232 14.6599Z" fill="#078F96"/>
</svg>
