<svg width="51" height="50" viewBox="0 0 51 50" fill="none" xmlns="http://www.w3.org/2000/svg">
<g id="Eye">
<path id="Vector" d="M48.4812 24.3721C48.4133 24.2187 46.7693 20.5716 43.1144 16.9167C38.2444 12.0467 32.0933 9.4729 25.3231 9.4729C18.5529 9.4729 12.4018 12.0467 7.53186 16.9167C3.87694 20.5716 2.22515 24.2245 2.16498 24.3721C2.07669 24.5706 2.03107 24.7855 2.03107 25.0029C2.03107 25.2202 2.07669 25.4351 2.16498 25.6337C2.23291 25.787 3.87694 29.4323 7.53186 33.0872C12.4018 37.9552 18.5529 40.529 25.3231 40.529C32.0933 40.529 38.2444 37.9552 43.1144 33.0872C46.7693 29.4323 48.4133 25.787 48.4812 25.6337C48.5695 25.4351 48.6151 25.2202 48.6151 25.0029C48.6151 24.7855 48.5695 24.5706 48.4812 24.3721ZM25.3231 37.4234C19.3487 37.4234 14.1293 35.2514 9.80865 30.9695C8.03583 29.2065 6.52756 27.1961 5.33076 25.0009C6.52723 22.8055 8.03554 20.7951 9.80865 19.0323C14.1293 14.7505 19.3487 12.5785 25.3231 12.5785C31.2975 12.5785 36.5169 14.7505 40.8376 19.0323C42.6138 20.7947 44.1254 22.8051 45.3252 25.0009C43.9257 27.6135 37.829 37.4234 25.3231 37.4234ZM25.3231 15.6841C23.4804 15.6841 21.6791 16.2305 20.147 17.2543C18.6148 18.278 17.4207 19.7331 16.7155 21.4355C16.0103 23.138 15.8258 25.0113 16.1853 26.8186C16.5448 28.6258 17.4321 30.2859 18.7351 31.5889C20.0381 32.8919 21.6982 33.7793 23.5055 34.1387C25.3128 34.4982 27.1861 34.3137 28.8885 33.6086C30.5909 32.9034 32.046 31.7092 33.0698 30.1771C34.0935 28.6449 34.6399 26.8436 34.6399 25.0009C34.6374 22.5308 33.6549 20.1625 31.9083 18.4158C30.1616 16.6691 27.7933 15.6867 25.3231 15.6841ZM25.3231 31.2122C24.0946 31.2122 22.8938 30.8479 21.8723 30.1654C20.8509 29.4829 20.0548 28.5128 19.5847 27.3779C19.1146 26.2429 18.9916 24.994 19.2312 23.7892C19.4709 22.5843 20.0625 21.4776 20.9311 20.6089C21.7998 19.7403 22.9065 19.1487 24.1114 18.9091C25.3162 18.6694 26.5651 18.7924 27.7 19.2625C28.835 19.7326 29.805 20.5287 30.4875 21.5502C31.17 22.5716 31.5343 23.7725 31.5343 25.0009C31.5343 26.6483 30.8799 28.2281 29.7151 29.3929C28.5503 30.5578 26.9704 31.2122 25.3231 31.2122Z" fill="#078F96"/>
</g>
</svg>
