<svg width="50" height="50" viewBox="0 0 50 50" fill="none" xmlns="http://www.w3.org/2000/svg">
<g id="FastForward">
<path id="Vector" d="M46.9098 22.386L29.7921 11.4853C29.3263 11.1875 28.789 11.0202 28.2365 11.0009C27.684 10.9816 27.1364 11.111 26.6509 11.3755C26.1655 11.6401 25.7599 12.0301 25.4766 12.5049C25.1934 12.9796 25.0427 13.5218 25.0405 14.0746V21.3146L9.60561 11.4853C9.13981 11.1875 8.6026 11.0202 8.05006 11.0009C7.49753 10.9816 6.94994 11.111 6.46447 11.3755C5.979 11.6401 5.57346 12.0301 5.29018 12.5049C5.0069 12.9796 4.85628 13.5218 4.85403 14.0746V35.876C4.85691 36.4286 5.00792 36.9704 5.29134 37.4448C5.57476 37.9192 5.98022 38.3089 6.46547 38.5733C6.95072 38.8377 7.498 38.9672 8.05029 38.9482C8.60259 38.9292 9.13968 38.7625 9.60561 38.4653L25.0405 28.6361V35.876C25.0434 36.4286 25.1944 36.9704 25.4778 37.4448C25.7612 37.9192 26.1667 38.3089 26.6519 38.5733C27.1372 38.8377 27.6845 38.9672 28.2367 38.9482C28.789 38.9292 29.3261 38.7625 29.7921 38.4653L46.9098 27.5646C47.3459 27.2878 47.705 26.9054 47.9539 26.4527C48.2027 26 48.3332 25.4919 48.3332 24.9753C48.3332 24.4588 48.2027 23.9506 47.9539 23.4979C47.705 23.0453 47.3459 22.6628 46.9098 22.386ZM7.95964 35.8333V14.1193L25.0055 24.9753L7.95964 35.8333ZM28.1461 35.8333V14.1193L45.192 24.9753L28.1461 35.8333Z" fill="#078F96"/>
</g>
</svg>
