<svg width="51" height="50" viewBox="0 0 51 50" fill="none" xmlns="http://www.w3.org/2000/svg">
<g id="Globe">
<path id="Vector" d="M25.1868 4.81458C21.1942 4.81458 17.2914 5.99849 13.9718 8.21661C10.6521 10.4347 8.06477 13.5874 6.5369 17.276C5.00904 20.9646 4.60928 25.0234 5.38818 28.9392C6.16707 32.855 8.08965 36.4519 10.9128 39.275C13.7359 42.0981 17.3328 44.0207 21.2486 44.7996C25.1644 45.5785 29.2232 45.1787 32.9118 43.6509C36.6004 42.123 39.7531 39.5357 41.9712 36.216C44.1893 32.8964 45.3732 28.9935 45.3732 25.001C45.3675 19.649 43.239 14.5178 39.4545 10.7333C35.67 6.94882 30.5388 4.82023 25.1868 4.81458ZM20.0683 32.765H30.3052C29.2629 36.3249 27.516 39.5333 25.1868 42.0605C22.8575 39.5333 21.1106 36.3249 20.0683 32.765ZM19.3637 29.6594C18.8487 26.5752 18.8487 23.4269 19.3637 20.3426H31.0098C31.5248 23.4269 31.5248 26.5752 31.0098 29.6594H19.3637ZM8.10591 25.001C8.10456 23.4258 8.32209 21.858 8.75226 20.3426H16.2174C15.7541 23.4309 15.7541 26.5711 16.2174 29.6594H8.75226C8.32209 28.1441 8.10456 26.5763 8.10591 25.001ZM30.3052 17.237H20.0683C21.1106 13.6772 22.8575 10.4687 25.1868 7.94153C27.516 10.4687 29.2629 13.6772 30.3052 17.237ZM34.1561 20.3426H41.6212C42.4831 23.3884 42.4831 26.6136 41.6212 29.6594H34.1561C34.6194 26.5711 34.6194 23.4309 34.1561 20.3426ZM40.3984 17.237H33.5214C32.729 14.1188 31.3982 11.1629 29.5889 8.50248C31.9004 9.12365 34.0563 10.2217 35.9179 11.726C37.7795 13.2303 39.3058 15.1075 40.3984 17.237ZM20.7846 8.50248C18.9753 11.1629 17.6445 14.1188 16.8521 17.237H9.97509C11.0677 15.1075 12.594 13.2303 14.4556 11.726C16.3172 10.2217 18.4731 9.12365 20.7846 8.50248ZM9.97509 32.765H16.8521C17.6445 35.8832 18.9753 38.8391 20.7846 41.4996C18.4731 40.8784 16.3172 39.7804 14.4556 38.2761C12.594 36.7718 11.0677 34.8945 9.97509 32.765ZM29.5889 41.4996C31.3982 38.8391 32.729 35.8832 33.5214 32.765H40.3984C39.3058 34.8945 37.7795 36.7718 35.9179 38.2761C34.0563 39.7804 31.9004 40.8784 29.5889 41.4996Z" fill="#078F96"/>
</g>
</svg>
