<svg width="50" height="50" viewBox="0 0 50 50" fill="none" xmlns="http://www.w3.org/2000/svg">
<g id="Handshake" clip-path="url(#clip0_13_78)">
<path id="Vector" d="M23.2455 42.4584C23.1615 42.7943 22.9677 43.0925 22.6948 43.3056C22.4219 43.5188 22.0855 43.6346 21.7393 43.6346C21.6084 43.6352 21.478 43.6196 21.3511 43.588L15.1399 42.0352C14.9669 41.9918 14.8028 41.9189 14.6546 41.8198L9.99619 38.7142C9.6536 38.4856 9.41584 38.1303 9.33521 37.7264C9.25458 37.3226 9.33769 36.9032 9.56626 36.5606C9.79482 36.218 10.1501 35.9803 10.554 35.8996C10.9579 35.819 11.3772 35.9021 11.7198 36.1307L16.1531 39.0868L22.1042 40.5756C22.303 40.6238 22.4904 40.7108 22.6555 40.8317C22.8206 40.9525 22.9601 41.1048 23.0662 41.2797C23.1723 41.4547 23.2427 41.6489 23.2735 41.8512C23.3042 42.0534 23.2947 42.2598 23.2455 42.4584ZM49.0007 23.7354C48.8733 24.1224 48.6704 24.4804 48.4039 24.7885C48.1374 25.0967 47.8125 25.349 47.4479 25.5309L42.8516 27.829L32.1605 38.522C31.9708 38.7116 31.7352 38.8487 31.4766 38.9202C31.2181 38.9916 30.9455 38.9949 30.6854 38.9296L18.2629 35.824C18.074 35.7766 17.8956 35.6943 17.7369 35.5814L6.96046 27.8872L2.2477 25.5309C1.51116 25.1627 0.950993 24.517 0.690378 23.7359C0.429763 22.9548 0.490035 22.1022 0.857939 21.3655L5.68134 11.7206C6.04953 10.9841 6.69517 10.4239 7.47629 10.1633C8.2574 9.90268 9.11004 9.96295 9.84673 10.3309L14.1286 12.466L24.4159 9.52728C24.695 9.44745 24.9909 9.44745 25.27 9.52728L35.5573 12.466L39.8391 10.3309C40.5758 9.96295 41.4285 9.90268 42.2096 10.1633C42.9907 10.4239 43.6363 10.9841 44.0045 11.7206L48.8279 21.3655C49.0119 21.7295 49.1219 22.1264 49.1516 22.5332C49.1812 22.9399 49.1299 23.3486 49.0007 23.7354ZM40.0371 26.2471L34.7556 15.6841H28.5794L20.1865 23.8364C22.6438 25.4066 26.4967 25.8395 29.9536 22.3554C30.2236 22.0832 30.5847 21.9206 30.9674 21.8987C31.3501 21.8769 31.7274 21.9974 32.0266 22.237L38.7056 27.5883L40.0371 26.2471ZM3.63552 22.7533L7.06915 24.4711L11.8926 14.8262L8.45891 13.1084L3.63552 22.7533ZM36.4909 29.7875L31.1124 25.4804C27.3197 28.586 22.504 28.9956 18.5133 26.4509C18.1208 26.2012 17.7893 25.8665 17.5435 25.4715C17.2977 25.0765 17.1437 24.6313 17.093 24.1688C17.0424 23.7064 17.0962 23.2384 17.2507 22.7995C17.4051 22.3607 17.6562 21.9621 17.9854 21.6333C17.99 21.6277 17.9952 21.6225 18.0009 21.6178L26.7082 13.1725L24.8449 12.6406L15.0583 15.4376L9.7458 26.0608L19.2955 32.8834L30.5805 35.7037L36.4909 29.7875ZM46.0484 22.7533L41.2308 13.1084L37.7972 14.8262L42.6206 24.4711L46.0484 22.7533Z" fill="#078F96"/>
</g>
<defs>
<clipPath id="clip0_13_78">
<rect width="49.6897" height="49.6897" fill="white" transform="translate(0 0.156128)"/>
</clipPath>
</defs>
</svg>
