<svg width="31" height="31" viewBox="0 0 31 31" fill="none" xmlns="http://www.w3.org/2000/svg">
<path id="Vector" d="M28.6154 0H2.38462C1.75218 0 1.14564 0.251235 0.698438 0.698438C0.251235 1.14564 0 1.75218 0 2.38462V28.6154C0 29.2478 0.251235 29.8544 0.698438 30.3016C1.14564 30.7488 1.75218 31 2.38462 31H28.6154C29.2478 31 29.8544 30.7488 30.3016 30.3016C30.7488 29.8544 31 29.2478 31 28.6154V2.38462C31 1.75218 30.7488 1.14564 30.3016 0.698438C29.8544 0.251235 29.2478 0 28.6154 0ZM28.6154 28.6154H2.38462V2.38462H28.6154V28.6154ZM10.7308 13.1154V22.6538C10.7308 22.9701 10.6052 23.2733 10.3816 23.4969C10.1579 23.7205 9.85468 23.8462 9.53846 23.8462C9.22224 23.8462 8.91897 23.7205 8.69537 23.4969C8.47177 23.2733 8.34615 22.9701 8.34615 22.6538V13.1154C8.34615 12.7992 8.47177 12.4959 8.69537 12.2723C8.91897 12.0487 9.22224 11.9231 9.53846 11.9231C9.85468 11.9231 10.1579 12.0487 10.3816 12.2723C10.6052 12.4959 10.7308 12.7992 10.7308 13.1154ZM23.8462 17.2885V22.6538C23.8462 22.9701 23.7205 23.2733 23.4969 23.4969C23.2733 23.7205 22.9701 23.8462 22.6538 23.8462C22.3376 23.8462 22.0344 23.7205 21.8108 23.4969C21.5872 23.2733 21.4615 22.9701 21.4615 22.6538V17.2885C21.4615 16.4979 21.1475 15.7397 20.5885 15.1807C20.0295 14.6217 19.2713 14.3077 18.4808 14.3077C17.6902 14.3077 16.9321 14.6217 16.373 15.1807C15.814 15.7397 15.5 16.4979 15.5 17.2885V22.6538C15.5 22.9701 15.3744 23.2733 15.1508 23.4969C14.9272 23.7205 14.6239 23.8462 14.3077 23.8462C13.9915 23.8462 13.6882 23.7205 13.4646 23.4969C13.241 23.2733 13.1154 22.9701 13.1154 22.6538V13.1154C13.1169 12.8233 13.2255 12.542 13.4206 12.3247C13.6158 12.1074 13.8839 11.9693 14.1741 11.9366C14.4643 11.9039 14.7565 11.9788 14.9951 12.1472C15.2337 12.3156 15.4022 12.5657 15.4687 12.8501C16.2753 12.3029 17.2157 11.9858 18.1889 11.9328C19.1621 11.8798 20.1314 12.0928 20.9926 12.5491C21.8538 13.0054 22.5745 13.6877 23.0773 14.5227C23.58 15.3577 23.8458 16.3138 23.8462 17.2885ZM11.3269 8.94231C11.3269 9.29603 11.222 9.64181 11.0255 9.93592C10.829 10.23 10.5497 10.4593 10.2229 10.5946C9.89608 10.73 9.53648 10.7654 9.18955 10.6964C8.84262 10.6274 8.52395 10.4571 8.27383 10.2069C8.02371 9.95682 7.85337 9.63815 7.78436 9.29122C7.71536 8.94429 7.75077 8.58469 7.88614 8.25789C8.0215 7.93109 8.25074 7.65177 8.54485 7.45526C8.83896 7.25874 9.18474 7.15385 9.53846 7.15385C10.0128 7.15385 10.4677 7.34227 10.8031 7.67767C11.1385 8.01308 11.3269 8.46798 11.3269 8.94231Z" fill="white"/>
</svg>
