<svg width="27" height="21" viewBox="0 0 27 21" fill="none" xmlns="http://www.w3.org/2000/svg">
<path id="Vector" d="M25.9615 0H1.03846C0.763044 0 0.498908 0.110625 0.304158 0.307538C0.109409 0.504451 0 0.771523 0 1.05V18.9C0 19.457 0.218818 19.9911 0.608317 20.3849C0.997815 20.7787 1.52609 21 2.07692 21H24.9231C25.4739 21 26.0022 20.7787 26.3917 20.3849C26.7812 19.9911 27 19.457 27 18.9V1.05C27 0.771523 26.8906 0.504451 26.6958 0.307538C26.5011 0.110625 26.237 0 25.9615 0ZM13.5 11.1759L3.70861 2.1H23.2914L13.5 11.1759ZM9.69793 10.5L2.07692 17.5626V3.43744L9.69793 10.5ZM11.2349 11.9241L12.7925 13.3744C12.9841 13.5522 13.2347 13.6509 13.4948 13.6509C13.7549 13.6509 14.0055 13.5522 14.1971 13.3744L15.7548 11.9241L23.2836 18.9H3.70861L11.2349 11.9241ZM17.3021 10.5L24.9231 3.43612V17.5639L17.3021 10.5Z" fill="white"/>
</svg>
