<?xml version="1.0" encoding="utf-8"?>
<!-- Generator: Adobe Illustrator 27.0.0, SVG Export Plug-In . SVG Version: 6.00 Build 0)  -->
<svg version="1.1" id="Layer_1" xmlns="http://www.w3.org/2000/svg" xmlns:xlink="http://www.w3.org/1999/xlink" x="0px" y="0px"
	 viewBox="0 0 442 179.5" style="enable-background:new 0 0 442 179.5;" xml:space="preserve">
<style type="text/css">
	.st0{fill:#231F20;}
	.st1{fill:#088F96;}
	.st2{fill:#45ABB1;}
	.st3{fill:#83C7CB;}
</style>
<g>
	<g>
		<path class="st0" d="M348.9,135.5c-4.2,5.6-16.1,12.2-30.2,12.2c-31.5,0-49.9-23.4-49.9-52.2c0-28.7,18.5-52.2,49.9-52.2
			c14.5,0,25.1,5.8,30.2,12.5V45.5h26.8v100h-26.8V135.5z M322.7,67.2c-17.2,0-27.3,12-27.3,28.4c0,16.4,10.7,28.2,27.3,28.2
			c16.6,0,27.3-10.7,27.3-28.2C350,79,339.5,67.2,322.7,67.2z"/>
		<path class="st0" d="M158.5,87.4v59.1h-27.3V87.4c0-15.4-8.9-20.2-19.4-20.2c-7.4,0-18.8,4.5-19,23.6v55.6H65.5V87.4
			c0-15.4-9-20.2-19.2-20.2c-8.3,0-19.2,4.5-19.2,26.4L27,146.4H0v-100h27v9.1c6.9-6.2,18.1-10.9,26.2-10.9c15.2,0,25.1,5.1,32,13.6
			c7.4-8.4,18.6-13.6,32-13.6C145.8,44.6,158.5,61.4,158.5,87.4L158.5,87.4z"/>
		<path class="st1" d="M228.6,132.4l9.7,12.9c9.5,0,18.9,0,28.4-0.1c2.4-0.9,3.4-2.3,2.6-4.4l-23.4-30.2L228.6,132.4L228.6,132.4z"
			/>
		<path class="st2" d="M246,81c7.9-10.1,15.8-20.2,23.6-30.3c0.8-2.6-0.2-4.2-2.5-4.9h-28l-10.2,13.8L246,81L246,81z"/>
		<path class="st2" d="M200.4,95.9l17,21.6l-20.8,27.8c-9.5,0-19,0-28.4-0.1c-2.4-0.9-3.4-2.3-2.6-4.4L200.4,95.9z"/>
		<path class="st1" d="M200.4,95.9c-11.7-15.1-23.5-30.1-35.2-45.2c-0.8-2.6,0.2-4.2,2.5-4.9h28.1l21.6,29L200.4,95.9L200.4,95.9z"
			/>
		<path class="st3" d="M217.4,117.5L234.3,96l-16.9-21.2l-17,21.1l14.8,19L217.4,117.5z"/>
		<path class="st1" d="M425.7,23.5c-5.4-6.9-10.8-13.8-16.1-20.7c-0.4-1.2,0.1-1.9,1.2-2.3h12.9l9.9,13.3l7.8,9.8l-7.8,9.8
			l-9.5,12.8c-4.3,0-8.7,0-13,0c-1.1-0.4-1.6-1.1-1.2-2L425.7,23.5L425.7,23.5z"/>
		<path class="st0" d="M408.9,23.4c-3.9-5.1-7.9-10.1-11.8-15.1c-0.3-0.9,0.1-1.4,0.8-1.7h9.4l7.2,9.7l5.7,7.1l-5.7,7.2l-7,9.3
			c-3.2,0-6.3,0-9.5,0c-0.8-0.3-1.1-0.8-0.9-1.5L408.9,23.4L408.9,23.4z"/>
	</g>
	<g>
		<path class="st1" d="M278,162.9c0-0.5,0.1-1,0.4-1.5c0.3-0.5,0.7-0.8,1.3-1.1c0.6-0.3,1.2-0.4,1.9-0.4c0.7,0,1.4,0.1,1.9,0.4
			c0.5,0.3,0.9,0.6,1.2,1.1c0.3,0.4,0.4,0.9,0.4,1.4c0,0.7-0.2,1.2-0.6,1.7c-0.4,0.5-1.1,1-1.9,1.5c0.3,0.3,0.6,0.7,0.8,1
			c0.3,0.3,0.5,0.6,0.7,0.9c0.2,0.3,0.5,0.5,0.6,0.7c0.1-0.2,0.2-0.5,0.4-0.9c0.2-0.5,0.4-0.8,0.5-1c0.2-0.2,0.4-0.3,0.7-0.3
			c0.3,0,0.5,0.1,0.7,0.3c0.2,0.2,0.3,0.4,0.3,0.7c0,0.3-0.1,0.6-0.3,1.1c-0.2,0.5-0.4,1-0.8,1.6c0.2,0.2,0.6,0.5,1,0.9
			c0.5,0.4,0.8,0.6,0.9,0.8c0.1,0.1,0.2,0.3,0.2,0.5c0,0.3-0.1,0.6-0.3,0.8c-0.2,0.2-0.5,0.3-0.7,0.3c-0.3,0-0.5-0.1-0.8-0.3
			c-0.3-0.2-0.8-0.6-1.6-1.3c-0.4,0.4-0.8,0.7-1.2,0.9c-0.4,0.2-0.8,0.4-1.3,0.5c-0.5,0.1-1,0.2-1.6,0.2c-0.7,0-1.4-0.1-2-0.3
			c-0.6-0.2-1.1-0.5-1.5-0.9c-0.4-0.4-0.7-0.8-0.9-1.2c-0.2-0.4-0.3-0.9-0.3-1.4s0.1-0.8,0.2-1.2c0.1-0.4,0.3-0.7,0.6-1
			c0.3-0.3,0.6-0.6,0.9-0.8c0.4-0.3,0.8-0.5,1.3-0.8c-0.4-0.6-0.8-1-1-1.5C278.2,163.8,278,163.3,278,162.9L278,162.9z M280.5,167.1
			c-0.6,0.3-1,0.7-1.3,1c-0.3,0.3-0.4,0.8-0.4,1.2c0,0.3,0.1,0.5,0.2,0.8c0.1,0.2,0.3,0.5,0.5,0.7c0.2,0.2,0.4,0.4,0.7,0.5
			c0.3,0.1,0.6,0.2,0.9,0.2s0.6,0,0.9-0.1c0.3-0.1,0.5-0.2,0.8-0.4c0.3-0.2,0.5-0.4,0.8-0.7c-0.5-0.5-1-1-1.4-1.4
			C281.6,168.4,281.1,167.8,280.5,167.1z M281.4,164.7c0.6-0.4,1-0.7,1.3-1c0.3-0.3,0.4-0.6,0.4-0.9s-0.1-0.7-0.4-0.9
			c-0.3-0.3-0.6-0.4-1-0.4c-0.4,0-0.7,0.1-1,0.4c-0.3,0.3-0.4,0.5-0.4,0.9c0,0.2,0.1,0.4,0.2,0.6s0.2,0.4,0.4,0.6
			C281,164.2,281.2,164.4,281.4,164.7L281.4,164.7z"/>
		<path class="st1" d="M52.6,166.9l-1.3,1.6l-2.4,3.2h-3.3l3.7-4.8l-3.8-4.9h3.3l2.5,3.3L52.6,166.9z"/>
		<path class="st1" d="M201.3,166.9l-1.3,1.6l-2.4,3.2h-3.3l3.7-4.8l-3.8-4.9h3.3l2.5,3.3L201.3,166.9z"/>
		<path class="st0" d="M13.1,159h-4v13.2c0,0.8-0.2,1.3-0.5,1.7c-0.3,0.4-0.8,0.6-1.3,0.6c-0.5,0-1-0.2-1.3-0.6
			c-0.3-0.4-0.5-0.9-0.5-1.7V159h-4c-0.6,0-1.1-0.1-1.4-0.4c-0.3-0.3-0.5-0.6-0.5-1.1s0.2-0.8,0.5-1.1s0.8-0.4,1.4-0.4h11.7
			c0.6,0,1.1,0.1,1.4,0.4c0.3,0.3,0.5,0.7,0.5,1.1s-0.2,0.8-0.5,1.1C14.2,158.8,13.7,159,13.1,159L13.1,159z"/>
		<path class="st0" d="M23.5,172.5c-0.8,0.6-1.6,1.1-2.4,1.4c-0.8,0.3-1.6,0.5-2.6,0.5c-0.9,0-1.6-0.2-2.3-0.5
			c-0.7-0.3-1.2-0.8-1.5-1.4c-0.4-0.6-0.5-1.2-0.5-1.9c0-0.9,0.3-1.7,0.9-2.4c0.6-0.7,1.4-1.1,2.4-1.3c0.2-0.1,0.7-0.2,1.6-0.3
			c0.8-0.2,1.6-0.3,2.2-0.5c0.6-0.1,1.3-0.3,2-0.5c0-0.9-0.2-1.6-0.5-2c-0.3-0.4-1-0.6-2-0.6c-0.9,0-1.5,0.1-1.9,0.4
			c-0.4,0.2-0.8,0.6-1.1,1.1c-0.3,0.5-0.5,0.8-0.7,0.9c-0.1,0.2-0.4,0.2-0.8,0.2c-0.4,0-0.7-0.1-1-0.4c-0.3-0.2-0.4-0.6-0.4-0.9
			c0-0.6,0.2-1.2,0.6-1.7c0.4-0.6,1.1-1,2-1.4c0.9-0.4,2-0.5,3.3-0.5c1.5,0,2.6,0.2,3.5,0.5c0.8,0.4,1.4,0.9,1.8,1.7
			c0.4,0.8,0.5,1.8,0.5,3c0,0.8,0,1.5,0,2c0,0.6,0,1.2,0,1.9c0,0.6,0.1,1.3,0.3,2c0.2,0.7,0.3,1.1,0.3,1.3c0,0.3-0.2,0.7-0.5,0.9
			c-0.3,0.3-0.7,0.4-1.1,0.4c-0.3,0-0.7-0.2-1-0.5C24.2,173.6,23.8,173.1,23.5,172.5L23.5,172.5z M23.2,167.6
			c-0.5,0.2-1.2,0.4-2.2,0.6c-0.9,0.2-1.6,0.4-2,0.4c-0.4,0.1-0.7,0.3-1,0.6c-0.3,0.3-0.5,0.7-0.5,1.2c0,0.5,0.2,0.9,0.6,1.3
			c0.4,0.4,0.9,0.5,1.5,0.5c0.7,0,1.3-0.1,1.9-0.4c0.6-0.3,1-0.7,1.2-1.1c0.3-0.5,0.5-1.4,0.5-2.5L23.2,167.6L23.2,167.6z"/>
		<path class="st0" d="M36.6,173.1l-2.5-3.6l-2.5,3.6c-0.4,0.5-0.7,0.9-0.9,1.1c-0.3,0.2-0.6,0.3-1,0.3c-0.4,0-0.8-0.1-1.1-0.4
			c-0.3-0.3-0.5-0.6-0.5-0.9c0-0.4,0.2-0.9,0.7-1.5l3.1-4.4l-2.7-3.7c-0.5-0.6-0.7-1.1-0.7-1.6c0-0.3,0.1-0.7,0.4-0.9
			c0.3-0.3,0.6-0.4,1.1-0.4c0.4,0,0.7,0.1,1,0.3c0.3,0.2,0.6,0.6,0.9,1.1l2.2,3l2.1-3c0.4-0.5,0.7-0.9,0.9-1.1
			c0.3-0.2,0.6-0.3,1-0.3c0.4,0,0.8,0.1,1.1,0.4c0.3,0.3,0.4,0.6,0.4,0.9c0,0.3-0.1,0.5-0.2,0.7s-0.3,0.5-0.6,0.8l-2.7,3.7l3.1,4.4
			c0.5,0.7,0.7,1.2,0.7,1.6c0,0.3-0.1,0.7-0.4,0.9c-0.3,0.3-0.7,0.4-1.1,0.4c-0.4,0-0.7-0.1-1-0.3S36.9,173.5,36.6,173.1L36.6,173.1
			z"/>
		<path class="st0" d="M69.3,172.1l-0.9-2.3H61l-0.9,2.3c-0.3,0.9-0.6,1.5-0.9,1.8c-0.2,0.3-0.6,0.5-1.2,0.5c-0.5,0-0.9-0.2-1.2-0.5
			c-0.4-0.3-0.5-0.7-0.5-1.2c0-0.3,0-0.5,0.1-0.8c0.1-0.3,0.2-0.6,0.4-1.1l4.6-11.8c0.1-0.3,0.3-0.7,0.5-1.2
			c0.2-0.5,0.4-0.9,0.6-1.2c0.2-0.3,0.5-0.6,0.8-0.8c0.3-0.2,0.8-0.3,1.3-0.3c0.5,0,0.9,0.1,1.3,0.3c0.3,0.2,0.6,0.4,0.8,0.8
			c0.2,0.3,0.4,0.6,0.5,1c0.1,0.4,0.3,0.8,0.6,1.4l4.7,11.8c0.4,0.9,0.6,1.5,0.6,1.9c0,0.4-0.2,0.8-0.5,1.2
			c-0.4,0.4-0.8,0.5-1.3,0.5c-0.3,0-0.5-0.1-0.7-0.2c-0.2-0.1-0.4-0.2-0.5-0.4c-0.1-0.2-0.3-0.5-0.5-0.8
			C69.5,172.7,69.4,172.4,69.3,172.1L69.3,172.1z M62,167h5.4l-2.7-7.5L62,167z"/>
		<path class="st0" d="M87.1,170.3c0,0.4-0.1,0.9-0.4,1.4c-0.3,0.5-0.6,0.9-1.2,1.4c-0.5,0.4-1.2,0.8-1.9,1.1
			c-0.8,0.3-1.7,0.4-2.6,0.4c-2.1,0-3.7-0.6-4.9-1.8c-1.2-1.2-1.8-2.9-1.8-4.9c0-1.4,0.3-2.6,0.8-3.7c0.5-1.1,1.3-1.9,2.3-2.5
			c1-0.6,2.2-0.9,3.6-0.9c0.9,0,1.7,0.1,2.4,0.4c0.7,0.3,1.4,0.6,1.9,1c0.5,0.4,0.9,0.8,1.2,1.3c0.3,0.5,0.4,0.9,0.4,1.3
			c0,0.4-0.1,0.7-0.5,1c-0.3,0.3-0.7,0.4-1.1,0.4c-0.3,0-0.5-0.1-0.7-0.2c-0.2-0.1-0.4-0.4-0.6-0.7c-0.4-0.6-0.8-1.1-1.3-1.4
			c-0.5-0.3-1-0.5-1.7-0.5c-1,0-1.8,0.4-2.4,1.2c-0.6,0.8-0.9,1.9-0.9,3.2c0,0.6,0.1,1.2,0.2,1.8c0.2,0.5,0.4,1,0.7,1.4
			c0.3,0.4,0.7,0.7,1.1,0.9c0.4,0.2,0.9,0.3,1.4,0.3c0.7,0,1.3-0.2,1.7-0.5c0.5-0.3,0.9-0.8,1.3-1.4c0.2-0.4,0.4-0.7,0.7-0.9
			c0.2-0.2,0.5-0.3,0.9-0.3c0.4,0,0.8,0.2,1,0.5C86.9,169.6,87,169.9,87.1,170.3L87.1,170.3z"/>
		<path class="st0" d="M101.4,170.3c0,0.4-0.1,0.9-0.4,1.4c-0.3,0.5-0.6,0.9-1.2,1.4c-0.5,0.4-1.2,0.8-1.9,1.1
			c-0.8,0.3-1.7,0.4-2.6,0.4c-2.1,0-3.7-0.6-4.9-1.8c-1.2-1.2-1.8-2.9-1.8-4.9c0-1.4,0.3-2.6,0.8-3.7c0.5-1.1,1.3-1.9,2.3-2.5
			c1-0.6,2.2-0.9,3.6-0.9c0.9,0,1.7,0.1,2.4,0.4c0.7,0.3,1.4,0.6,1.9,1c0.5,0.4,0.9,0.8,1.2,1.3c0.3,0.5,0.4,0.9,0.4,1.3
			c0,0.4-0.1,0.7-0.4,1c-0.3,0.3-0.7,0.4-1.1,0.4c-0.3,0-0.5-0.1-0.7-0.2c-0.2-0.1-0.4-0.4-0.6-0.7c-0.4-0.6-0.8-1.1-1.3-1.4
			c-0.5-0.3-1-0.5-1.7-0.5c-1,0-1.8,0.4-2.4,1.2c-0.6,0.8-0.9,1.9-0.9,3.2c0,0.6,0.1,1.2,0.2,1.8c0.2,0.5,0.4,1,0.7,1.4
			c0.3,0.4,0.7,0.7,1.1,0.9c0.4,0.2,0.9,0.3,1.4,0.3c0.7,0,1.3-0.2,1.7-0.5c0.5-0.3,0.9-0.8,1.3-1.4c0.2-0.4,0.4-0.7,0.7-0.9
			c0.2-0.2,0.5-0.3,0.9-0.3c0.4,0,0.8,0.2,1,0.5S101.4,169.9,101.4,170.3L101.4,170.3z"/>
		<path class="st0" d="M116.2,167.6c0,1-0.2,1.9-0.5,2.8c-0.3,0.9-0.8,1.6-1.4,2.2c-0.6,0.6-1.3,1.1-2.1,1.4
			c-0.8,0.3-1.8,0.5-2.8,0.5c-1,0-1.9-0.2-2.8-0.5c-0.8-0.3-1.5-0.8-2.1-1.4c-0.6-0.6-1.1-1.3-1.4-2.2c-0.3-0.8-0.5-1.8-0.5-2.8
			c0-1,0.2-2,0.5-2.8c0.3-0.9,0.8-1.6,1.3-2.2c0.6-0.6,1.3-1.1,2.1-1.4s1.8-0.5,2.8-0.5c1,0,1.9,0.2,2.8,0.5
			c0.8,0.3,1.5,0.8,2.1,1.4c0.6,0.6,1,1.3,1.4,2.2C116.1,165.6,116.3,166.5,116.2,167.6L116.2,167.6z M112.9,167.6
			c0-1.4-0.3-2.5-0.9-3.2s-1.4-1.2-2.4-1.2c-0.7,0-1.2,0.2-1.7,0.5c-0.5,0.3-0.9,0.9-1.2,1.5c-0.3,0.7-0.4,1.5-0.4,2.3
			c0,0.9,0.1,1.7,0.4,2.3c0.3,0.7,0.6,1.2,1.2,1.5c0.5,0.4,1.1,0.5,1.8,0.5c1,0,1.8-0.4,2.4-1.2S112.9,168.9,112.9,167.6
			L112.9,167.6z"/>
		<path class="st0" d="M127,172.5v-0.4c-0.4,0.5-0.8,0.9-1.3,1.3c-0.4,0.3-0.9,0.6-1.5,0.8c-0.5,0.2-1.1,0.3-1.8,0.3
			c-0.8,0-1.5-0.2-2.2-0.5c-0.6-0.3-1.2-0.8-1.5-1.4c-0.4-0.7-0.6-1.8-0.6-3.1v-6.7c0-0.7,0.2-1.2,0.5-1.5c0.3-0.3,0.7-0.5,1.2-0.5
			c0.5,0,0.9,0.2,1.2,0.5c0.3,0.3,0.5,0.8,0.5,1.5v5.4c0,0.8,0.1,1.5,0.2,2c0.1,0.5,0.4,1,0.7,1.3c0.3,0.3,0.8,0.5,1.4,0.5
			c0.6,0,1.1-0.2,1.6-0.5c0.5-0.3,0.9-0.8,1.1-1.3c0.2-0.5,0.3-1.5,0.3-3.2v-4.1c0-0.7,0.2-1.2,0.5-1.5c0.3-0.3,0.7-0.5,1.2-0.5
			c0.5,0,0.9,0.2,1.2,0.5c0.3,0.3,0.5,0.8,0.5,1.5v9.8c0,0.6-0.1,1.1-0.4,1.5c-0.3,0.3-0.7,0.5-1.1,0.5c-0.5,0-0.8-0.2-1.1-0.5
			C127.1,173.6,126.9,173.1,127,172.5L127,172.5z"/>
		<path class="st0" d="M135.8,162.5v0.4c0.6-0.8,1.2-1.4,1.9-1.7c0.7-0.4,1.5-0.6,2.4-0.6c0.9,0,1.7,0.2,2.4,0.6
			c0.7,0.4,1.2,0.9,1.6,1.7c0.2,0.4,0.4,0.9,0.4,1.3c0.1,0.5,0.1,1.1,0.1,1.8v6.3c0,0.7-0.2,1.2-0.5,1.5c-0.3,0.3-0.7,0.5-1.2,0.5
			c-0.5,0-0.9-0.2-1.2-0.5c-0.3-0.4-0.5-0.9-0.5-1.5v-5.7c0-1.1-0.2-2-0.5-2.6c-0.3-0.6-0.9-0.9-1.9-0.9c-0.6,0-1.2,0.2-1.6,0.5
			c-0.5,0.4-0.9,0.9-1.1,1.5c-0.2,0.5-0.3,1.5-0.3,2.8v4.3c0,0.7-0.2,1.2-0.5,1.5c-0.3,0.3-0.7,0.5-1.2,0.5s-0.9-0.2-1.2-0.5
			c-0.3-0.4-0.5-0.9-0.5-1.5v-9.8c0-0.6,0.1-1.1,0.4-1.5c0.3-0.3,0.7-0.5,1.2-0.5c0.3,0,0.6,0.1,0.8,0.2c0.2,0.1,0.4,0.4,0.6,0.6
			C135.8,161.8,135.8,162.1,135.8,162.5L135.8,162.5z"/>
		<path class="st0" d="M147.5,161h0.4v-2c0-0.5,0-1,0-1.3s0.1-0.6,0.2-0.8c0.1-0.2,0.3-0.4,0.6-0.6c0.3-0.1,0.5-0.2,0.8-0.2
			c0.4,0,0.8,0.2,1.2,0.5c0.2,0.2,0.4,0.5,0.4,0.8c0.1,0.3,0.1,0.7,0.1,1.3v2.3h1.2c0.5,0,0.8,0.1,1.1,0.3s0.4,0.5,0.4,0.9
			c0,0.5-0.2,0.8-0.5,1c-0.4,0.2-0.9,0.3-1.5,0.3h-0.6v6.2c0,0.5,0,0.9,0.1,1.2c0,0.3,0.1,0.5,0.3,0.7c0.2,0.2,0.4,0.3,0.8,0.3
			c0.2,0,0.5,0,0.8-0.1c0.3-0.1,0.6-0.1,0.8-0.1c0.3,0,0.5,0.1,0.7,0.3c0.2,0.2,0.3,0.5,0.3,0.8c0,0.5-0.3,1-0.9,1.3
			c-0.6,0.3-1.4,0.4-2.6,0.4c-1.1,0-1.9-0.2-2.4-0.5c-0.5-0.4-0.9-0.9-1.1-1.5c-0.2-0.6-0.3-1.5-0.3-2.5v-6.5h-0.4
			c-0.5,0-0.9-0.1-1.1-0.3c-0.3-0.2-0.4-0.5-0.4-0.9c0-0.4,0.1-0.7,0.4-0.9S147,161,147.5,161L147.5,161z"/>
		<path class="st0" d="M157.3,159.1c-0.5,0-0.9-0.1-1.2-0.4c-0.3-0.3-0.5-0.7-0.5-1.2c0-0.5,0.2-0.9,0.5-1.2
			c0.3-0.3,0.7-0.5,1.2-0.5c0.5,0,0.8,0.1,1.2,0.4c0.3,0.3,0.5,0.7,0.5,1.2s-0.2,0.9-0.5,1.2C158.1,158.9,157.7,159.1,157.3,159.1z
			 M159,162.6v9.8c0,0.7-0.2,1.2-0.5,1.5c-0.3,0.3-0.7,0.5-1.2,0.5s-0.9-0.2-1.2-0.5c-0.3-0.4-0.5-0.9-0.5-1.5v-9.7
			c0-0.7,0.2-1.2,0.5-1.5c0.3-0.3,0.7-0.5,1.2-0.5c0.5,0,0.9,0.2,1.2,0.5C158.8,161.5,159,162,159,162.6z"/>
		<path class="st0" d="M164.8,162.5v0.4c0.6-0.8,1.2-1.4,1.9-1.7c0.7-0.4,1.5-0.6,2.4-0.6s1.7,0.2,2.4,0.6c0.7,0.4,1.2,0.9,1.6,1.7
			c0.2,0.4,0.4,0.9,0.4,1.3c0.1,0.5,0.1,1.1,0.1,1.8v6.3c0,0.7-0.2,1.2-0.5,1.5c-0.3,0.3-0.7,0.5-1.2,0.5c-0.5,0-0.9-0.2-1.2-0.5
			c-0.3-0.4-0.5-0.9-0.5-1.5v-5.7c0-1.1-0.2-2-0.5-2.6c-0.3-0.6-0.9-0.9-1.9-0.9c-0.6,0-1.2,0.2-1.6,0.5c-0.5,0.4-0.9,0.9-1.1,1.5
			c-0.2,0.5-0.3,1.5-0.3,2.8v4.3c0,0.7-0.2,1.2-0.5,1.5c-0.3,0.3-0.7,0.5-1.2,0.5s-0.9-0.2-1.2-0.5c-0.3-0.4-0.5-0.9-0.5-1.5v-9.8
			c0-0.6,0.1-1.1,0.4-1.5c0.3-0.3,0.7-0.5,1.2-0.5c0.3,0,0.6,0.1,0.8,0.2c0.2,0.1,0.4,0.4,0.6,0.6
			C164.7,161.8,164.8,162.1,164.8,162.5L164.8,162.5z"/>
		<path class="st0" d="M188.7,163.1v9.9c0,1.1-0.1,2.1-0.4,2.9c-0.2,0.8-0.6,1.5-1.2,2c-0.5,0.5-1.2,0.9-2.1,1.2
			c-0.8,0.3-1.9,0.4-3.2,0.4c-1.2,0-2.2-0.2-3.1-0.5c-0.9-0.3-1.6-0.7-2.1-1.3c-0.5-0.5-0.7-1.1-0.7-1.6c0-0.4,0.1-0.8,0.4-1
			c0.3-0.3,0.6-0.4,1-0.4c0.5,0,0.9,0.2,1.3,0.7c0.2,0.2,0.4,0.5,0.6,0.7c0.2,0.2,0.4,0.4,0.6,0.6c0.2,0.2,0.5,0.3,0.8,0.4
			c0.3,0.1,0.7,0.1,1.1,0.1c0.9,0,1.6-0.1,2-0.4c0.5-0.2,0.8-0.6,1-1c0.2-0.4,0.3-0.9,0.3-1.4c0-0.5,0.1-1.3,0.1-2.4
			c-0.5,0.7-1.1,1.3-1.8,1.7c-0.7,0.4-1.5,0.6-2.4,0.6c-1.1,0-2.1-0.3-3-0.9c-0.8-0.6-1.5-1.4-1.9-2.4c-0.4-1-0.7-2.3-0.7-3.6
			c0-1,0.1-1.9,0.4-2.8c0.3-0.8,0.7-1.5,1.2-2.1c0.5-0.6,1.1-1,1.8-1.3c0.7-0.3,1.4-0.4,2.2-0.4c1,0,1.8,0.2,2.5,0.6
			c0.7,0.4,1.4,0.9,2,1.7v-0.5c0-0.6,0.1-1,0.4-1.4c0.3-0.3,0.7-0.5,1.1-0.5c0.7,0,1.1,0.2,1.3,0.6
			C188.6,161.8,188.7,162.4,188.7,163.1L188.7,163.1z M178.9,167.5c0,1.4,0.3,2.4,0.9,3.1c0.6,0.7,1.4,1.1,2.3,1.1
			c0.6,0,1.1-0.1,1.6-0.5c0.5-0.3,0.9-0.8,1.2-1.4c0.3-0.6,0.5-1.3,0.5-2.2c0-1.4-0.3-2.5-0.9-3.2c-0.6-0.8-1.4-1.2-2.4-1.2
			c-1,0-1.7,0.4-2.3,1.1C179.2,165.1,178.9,166.1,178.9,167.5L178.9,167.5z"/>
		<path class="st0" d="M211,159v13.3h7.5c0.6,0,1,0.1,1.4,0.4c0.3,0.3,0.5,0.7,0.5,1.1c0,0.4-0.2,0.8-0.5,1.1
			c-0.3,0.3-0.8,0.4-1.4,0.4h-8.9c-0.8,0-1.4-0.2-1.7-0.5c-0.4-0.4-0.5-0.9-0.5-1.7v-14c0-0.7,0.2-1.3,0.5-1.7
			c0.3-0.4,0.8-0.6,1.3-0.6c0.5,0,1,0.2,1.3,0.6C210.8,157.7,211,158.2,211,159z"/>
		<path class="st0" d="M231.9,169.5h-6.6c0,0.8,0.2,1.5,0.5,2c0.3,0.6,0.7,1,1.2,1.3s1,0.5,1.7,0.5c0.4,0,0.8,0,1.1-0.1
			c0.3-0.1,0.7-0.2,1-0.4c0.3-0.2,0.6-0.4,0.9-0.7c0.3-0.2,0.6-0.5,1-0.9c0.2-0.1,0.4-0.2,0.7-0.2c0.3,0,0.6,0.1,0.8,0.3
			c0.2,0.2,0.3,0.5,0.3,0.8c0,0.3-0.1,0.7-0.4,1.1c-0.2,0.4-0.6,0.8-1.1,1.2c-0.5,0.4-1.1,0.7-1.8,0.9c-0.7,0.3-1.6,0.4-2.5,0.4
			c-2.2,0-3.9-0.6-5.1-1.9c-1.2-1.2-1.8-2.9-1.8-5.1c0-1,0.1-1.9,0.4-2.8c0.3-0.9,0.7-1.6,1.3-2.2c0.6-0.6,1.3-1.1,2.1-1.4
			c0.8-0.3,1.8-0.5,2.8-0.5c1.3,0,2.4,0.3,3.4,0.8c0.9,0.6,1.7,1.3,2.1,2.2c0.5,0.9,0.7,1.8,0.7,2.7c0,0.9-0.2,1.4-0.7,1.7
			C233.4,169.4,232.7,169.5,231.9,169.5L231.9,169.5z M225.2,167.6h6.1c-0.1-1.2-0.4-2-0.9-2.6c-0.5-0.6-1.3-0.9-2.1-0.9
			c-0.9,0-1.5,0.3-2.1,0.9C225.7,165.6,225.4,166.5,225.2,167.6L225.2,167.6z"/>
		<path class="st0" d="M249.6,164.3v9.9c0,1.1-0.1,2.1-0.4,2.9c-0.2,0.8-0.6,1.5-1.2,2c-0.5,0.5-1.2,0.9-2.1,1.2
			c-0.9,0.3-1.9,0.4-3.2,0.4c-1.2,0-2.2-0.2-3.1-0.5c-0.9-0.3-1.6-0.7-2.1-1.3c-0.5-0.5-0.7-1.1-0.7-1.6c0-0.4,0.1-0.8,0.4-1
			c0.3-0.3,0.6-0.4,1-0.4c0.5,0,0.9,0.2,1.3,0.7c0.2,0.2,0.4,0.5,0.6,0.7c0.2,0.2,0.4,0.4,0.6,0.6c0.2,0.2,0.5,0.3,0.8,0.4
			c0.3,0.1,0.7,0.1,1.1,0.1c0.9,0,1.6-0.1,2-0.4c0.5-0.2,0.8-0.6,1-1c0.2-0.4,0.3-0.9,0.3-1.4c0-0.5,0.1-1.3,0.1-2.4
			c-0.5,0.7-1.1,1.3-1.8,1.7c-0.7,0.4-1.5,0.6-2.4,0.6c-1.1,0-2.1-0.3-3-0.9c-0.8-0.6-1.5-1.4-1.9-2.4c-0.5-1-0.7-2.3-0.7-3.6
			c0-1,0.1-1.9,0.4-2.8c0.3-0.8,0.7-1.5,1.2-2.1c0.5-0.6,1.1-1,1.8-1.3c0.7-0.3,1.4-0.4,2.2-0.4c1,0,1.8,0.2,2.5,0.6
			c0.7,0.4,1.4,0.9,2,1.7v-0.5c0-0.6,0.1-1,0.4-1.4s0.7-0.5,1.1-0.5c0.6,0,1.1,0.2,1.3,0.6C249.5,162.9,249.6,163.5,249.6,164.3
			L249.6,164.3z M239.8,168.6c0,1.4,0.3,2.4,0.9,3.1c0.6,0.7,1.4,1.1,2.3,1.1c0.6,0,1.1-0.1,1.6-0.5c0.5-0.3,0.9-0.8,1.2-1.4
			c0.3-0.6,0.5-1.3,0.5-2.2c0-1.4-0.3-2.5-0.9-3.2s-1.4-1.2-2.4-1.2c-1,0-1.7,0.4-2.3,1.1C240.1,166.2,239.8,167.2,239.8,168.6
			L239.8,168.6z"/>
		<path class="st0" d="M260.9,173.7c-0.8,0.6-1.6,1.1-2.4,1.4c-0.8,0.3-1.6,0.5-2.6,0.5c-0.9,0-1.6-0.2-2.3-0.5
			c-0.7-0.3-1.2-0.8-1.5-1.4c-0.4-0.6-0.5-1.2-0.5-1.9c0-0.9,0.3-1.7,0.9-2.4c0.6-0.7,1.4-1.1,2.4-1.3c0.2-0.1,0.7-0.2,1.6-0.3
			c0.8-0.2,1.6-0.3,2.2-0.5c0.6-0.1,1.3-0.3,2-0.5c0-0.9-0.2-1.6-0.5-2c-0.3-0.4-1-0.6-2-0.6c-0.9,0-1.5,0.1-1.9,0.4
			c-0.4,0.2-0.8,0.6-1.1,1.1c-0.3,0.5-0.5,0.8-0.7,0.9c-0.1,0.2-0.4,0.2-0.8,0.2c-0.4,0-0.7-0.1-1-0.4c-0.3-0.2-0.4-0.6-0.4-0.9
			c0-0.6,0.2-1.2,0.6-1.7c0.4-0.6,1.1-1,2-1.4c0.9-0.4,2-0.5,3.3-0.5c1.5,0,2.6,0.2,3.5,0.5c0.8,0.4,1.5,0.9,1.8,1.7
			c0.4,0.8,0.5,1.8,0.5,3c0,0.8,0,1.5,0,2c0,0.6,0,1.2,0,1.9c0,0.6,0.1,1.3,0.3,2c0.2,0.7,0.3,1.1,0.3,1.3c0,0.3-0.2,0.7-0.5,0.9
			c-0.3,0.3-0.7,0.4-1.1,0.4c-0.3,0-0.7-0.2-1-0.5C261.6,174.7,261.3,174.3,260.9,173.7L260.9,173.7z M260.7,168.8
			c-0.5,0.2-1.2,0.4-2.2,0.6c-0.9,0.2-1.6,0.4-2,0.4c-0.4,0.1-0.7,0.3-1,0.6c-0.3,0.3-0.5,0.7-0.5,1.2c0,0.5,0.2,0.9,0.6,1.3
			c0.4,0.4,0.9,0.5,1.5,0.5c0.7,0,1.3-0.1,1.9-0.4c0.6-0.3,1-0.7,1.2-1.1c0.3-0.5,0.5-1.4,0.5-2.5L260.7,168.8L260.7,168.8z"/>
		<path class="st0" d="M267.4,173.5v-14.7c0-0.7,0.1-1.2,0.5-1.5c0.3-0.3,0.7-0.5,1.2-0.5c0.5,0,0.9,0.2,1.2,0.5
			c0.3,0.3,0.5,0.9,0.5,1.5v14.7c0,0.7-0.2,1.2-0.5,1.5c-0.3,0.3-0.7,0.5-1.2,0.5c-0.5,0-0.9-0.2-1.2-0.5
			C267.6,174.7,267.4,174.2,267.4,173.5z"/>
		<path class="st0" d="M298.8,158.9l7.1,10.7v-10.8c0-0.7,0.1-1.2,0.4-1.6c0.3-0.3,0.7-0.5,1.2-0.5c0.5,0,0.9,0.2,1.2,0.5
			c0.3,0.4,0.5,0.9,0.5,1.6v14.3c0,1.6-0.7,2.4-2,2.4c-0.3,0-0.6,0-0.9-0.1c-0.3-0.1-0.5-0.2-0.7-0.5c-0.2-0.2-0.4-0.5-0.6-0.7
			c-0.2-0.3-0.4-0.6-0.6-0.9l-6.9-10.6v10.7c0,0.7-0.2,1.2-0.5,1.6c-0.3,0.4-0.7,0.5-1.2,0.5c-0.5,0-0.9-0.2-1.2-0.5
			c-0.3-0.4-0.5-0.9-0.5-1.6v-14.1c0-0.6,0.1-1.1,0.2-1.4c0.2-0.4,0.4-0.7,0.8-0.9c0.4-0.2,0.8-0.4,1.2-0.4c0.3,0,0.6,0.1,0.8,0.2
			c0.2,0.1,0.4,0.3,0.6,0.4c0.2,0.2,0.4,0.4,0.5,0.7C298.4,158.3,298.6,158.6,298.8,158.9L298.8,158.9z"/>
		<path class="st0" d="M325.6,168.7c0,1-0.2,1.9-0.5,2.8c-0.3,0.9-0.8,1.6-1.4,2.2c-0.6,0.6-1.3,1.1-2.1,1.4
			c-0.8,0.3-1.8,0.5-2.8,0.5c-1,0-1.9-0.2-2.8-0.5c-0.8-0.3-1.5-0.8-2.1-1.4c-0.6-0.6-1.1-1.3-1.4-2.2c-0.3-0.8-0.5-1.8-0.5-2.8
			c0-1,0.2-2,0.5-2.8c0.3-0.9,0.8-1.6,1.4-2.2c0.6-0.6,1.3-1.1,2.1-1.4c0.8-0.3,1.8-0.5,2.8-0.5c1,0,1.9,0.2,2.8,0.5
			c0.8,0.3,1.6,0.8,2.1,1.4c0.6,0.6,1,1.3,1.4,2.2C325.5,166.7,325.6,167.7,325.6,168.7L325.6,168.7z M322.2,168.7
			c0-1.4-0.3-2.5-0.9-3.2c-0.6-0.8-1.4-1.2-2.4-1.2c-0.7,0-1.2,0.2-1.7,0.5c-0.5,0.3-0.9,0.9-1.2,1.5c-0.3,0.7-0.4,1.5-0.4,2.3
			c0,0.9,0.1,1.7,0.4,2.3c0.3,0.7,0.6,1.2,1.2,1.5c0.5,0.4,1.1,0.5,1.8,0.5c1,0,1.8-0.4,2.4-1.2C321.9,171.1,322.2,170,322.2,168.7
			L322.2,168.7z"/>
		<path class="st0" d="M328.5,162.1h0.4v-2c0-0.5,0-1,0-1.3c0-0.3,0.1-0.6,0.2-0.8c0.1-0.2,0.3-0.4,0.6-0.6c0.3-0.1,0.5-0.2,0.8-0.2
			c0.4,0,0.8,0.2,1.2,0.5c0.2,0.2,0.4,0.5,0.4,0.8c0.1,0.3,0.1,0.7,0.1,1.3v2.3h1.2c0.5,0,0.8,0.1,1.1,0.3c0.3,0.2,0.4,0.5,0.4,0.9
			c0,0.5-0.2,0.8-0.5,1c-0.4,0.2-0.9,0.3-1.5,0.3h-0.6v6.2c0,0.5,0,0.9,0.1,1.2c0,0.3,0.1,0.5,0.3,0.7c0.2,0.2,0.4,0.3,0.8,0.3
			c0.2,0,0.5,0,0.8-0.1c0.3-0.1,0.6-0.1,0.8-0.1c0.3,0,0.5,0.1,0.7,0.3c0.2,0.2,0.3,0.5,0.3,0.8c0,0.5-0.3,1-0.9,1.3
			c-0.6,0.3-1.4,0.4-2.6,0.4c-1.1,0-1.9-0.2-2.4-0.5c-0.5-0.4-0.9-0.9-1.1-1.5c-0.2-0.6-0.3-1.5-0.3-2.5v-6.5h-0.4
			c-0.5,0-0.9-0.1-1.1-0.3c-0.3-0.2-0.4-0.5-0.4-0.9c0-0.4,0.1-0.7,0.4-0.9C327.6,162.2,328,162.1,328.5,162.1L328.5,162.1z"/>
		<path class="st0" d="M345.8,173.7c-0.8,0.6-1.6,1.1-2.4,1.4c-0.8,0.3-1.6,0.5-2.6,0.5c-0.9,0-1.6-0.2-2.3-0.5
			c-0.7-0.3-1.2-0.8-1.5-1.4c-0.4-0.6-0.5-1.2-0.5-1.9c0-0.9,0.3-1.7,0.9-2.4c0.6-0.7,1.4-1.1,2.4-1.3c0.2-0.1,0.7-0.2,1.6-0.3
			c0.8-0.2,1.6-0.3,2.2-0.5c0.6-0.1,1.3-0.3,2-0.5c0-0.9-0.2-1.6-0.5-2c-0.3-0.4-1-0.6-2-0.6c-0.9,0-1.5,0.1-1.9,0.4
			c-0.4,0.2-0.8,0.6-1.1,1.1c-0.3,0.5-0.5,0.8-0.7,0.9c-0.1,0.2-0.4,0.2-0.8,0.2c-0.4,0-0.7-0.1-1-0.4c-0.3-0.2-0.4-0.6-0.4-0.9
			c0-0.6,0.2-1.2,0.6-1.7c0.4-0.6,1.1-1,2-1.4c0.9-0.4,2-0.5,3.3-0.5c1.5,0,2.6,0.2,3.5,0.5c0.8,0.4,1.5,0.9,1.8,1.7
			c0.4,0.8,0.5,1.8,0.5,3c0,0.8,0,1.5,0,2c0,0.6,0,1.2,0,1.9c0,0.6,0.1,1.3,0.3,2c0.2,0.7,0.3,1.1,0.3,1.3c0,0.3-0.2,0.7-0.5,0.9
			c-0.3,0.3-0.7,0.4-1.1,0.4c-0.3,0-0.7-0.2-1-0.5C346.5,174.7,346.2,174.3,345.8,173.7L345.8,173.7z M345.6,168.8
			c-0.5,0.2-1.2,0.4-2.2,0.6c-0.9,0.2-1.6,0.4-2,0.4c-0.4,0.1-0.7,0.3-1,0.6c-0.3,0.3-0.5,0.7-0.5,1.2c0,0.5,0.2,0.9,0.6,1.3
			c0.4,0.4,0.9,0.5,1.5,0.5c0.7,0,1.3-0.1,1.9-0.4c0.6-0.3,1-0.7,1.2-1.1c0.3-0.5,0.5-1.4,0.5-2.5L345.6,168.8L345.6,168.8z"/>
		<path class="st0" d="M355.7,170.7v2.8c0,0.7-0.2,1.2-0.5,1.5c-0.3,0.3-0.7,0.5-1.2,0.5c-0.5,0-0.9-0.2-1.2-0.5
			c-0.3-0.3-0.5-0.9-0.5-1.5v-9.5c0-1.5,0.5-2.3,1.6-2.3c0.6,0,1,0.2,1.2,0.5c0.3,0.4,0.4,0.9,0.4,1.6c0.4-0.7,0.8-1.2,1.2-1.6
			c0.4-0.4,1-0.5,1.7-0.5s1.4,0.2,2.1,0.5c0.7,0.4,1,0.8,1,1.4c0,0.4-0.1,0.8-0.4,1c-0.3,0.3-0.6,0.4-0.9,0.4
			c-0.1,0-0.4-0.1-0.9-0.2c-0.5-0.2-0.9-0.2-1.3-0.2c-0.5,0-0.9,0.1-1.2,0.4c-0.3,0.3-0.6,0.7-0.7,1.2c-0.2,0.5-0.3,1.1-0.4,1.8
			C355.7,168.8,355.7,169.7,355.7,170.7z"/>
		<path class="st0" d="M366.6,176l0.3-0.8l-4.2-10.5c-0.3-0.6-0.4-1-0.4-1.3c0-0.3,0.1-0.6,0.2-0.8s0.4-0.4,0.6-0.6
			c0.3-0.2,0.5-0.2,0.8-0.2c0.5,0,0.9,0.2,1.1,0.5c0.3,0.3,0.5,0.8,0.7,1.3l2.9,8.4l2.7-7.8c0.2-0.6,0.4-1.1,0.6-1.5
			c0.2-0.4,0.4-0.6,0.6-0.7c0.2-0.1,0.5-0.2,0.8-0.2c0.3,0,0.5,0.1,0.7,0.2c0.2,0.1,0.4,0.3,0.5,0.6c0.1,0.2,0.2,0.5,0.2,0.7
			c0,0.2-0.1,0.4-0.2,0.7c-0.1,0.3-0.2,0.6-0.3,0.9l-4.4,11.6c-0.4,1-0.8,1.8-1.1,2.4c-0.4,0.6-0.8,1-1.4,1.3
			c-0.6,0.3-1.4,0.5-2.4,0.5s-1.7-0.1-2.2-0.3c-0.5-0.2-0.7-0.6-0.7-1.2c0-0.4,0.1-0.7,0.4-0.9c0.2-0.2,0.6-0.3,1-0.3
			c0.2,0,0.4,0,0.5,0.1c0.2,0.1,0.4,0.1,0.6,0.1c0.4,0,0.7-0.1,0.9-0.2c0.2-0.1,0.4-0.3,0.6-0.6C366.1,177,366.3,176.6,366.6,176
			L366.6,176z"/>
	</g>
</g>
</svg>
