<svg width="88" height="90" viewBox="0 0 32 34" fill="none" xmlns="http://www.w3.org/2000/svg">
<path d="M20.7326 16.6576C16.8559 11.6452 12.9605 6.65169 9.0838 1.63928C8.81493 0.775505 9.14008 0.252197 9.91542 0H19.2007L26.3601 9.64022L32 16.7143L26.3663 23.8452L19.4758 33.0945C16.337 33.0945 13.2043 33.0819 10.0655 33.0756C9.26513 32.773 8.94625 32.2938 9.19636 31.6065L20.7389 16.6639L20.7326 16.6576Z" fill="#078f96"/>
<path d="M8.5836 16.6261C5.75112 12.9629 2.89988 9.31237 0.067395 5.64921C-0.126439 5.01872 0.104912 4.63412 0.67391 4.45128H7.45812L12.6916 11.4939L16.8122 16.6639L12.6916 21.8718L7.65195 28.6306C5.3572 28.6306 3.06871 28.6243 0.773956 28.618C0.192453 28.3973 -0.0451632 28.0506 0.136166 27.5462L8.5711 16.6261H8.5836Z" fill="#231F20"/>
</svg>
