<svg width="88" height="90" viewBox="0 0 88 90" fill="none" xmlns="http://www.w3.org/2000/svg">
<g id="Group" filter="url(#filter0_d_5_6)">
<g id="Group_2">
<path id="Vector" d="M54.1253 44.0603C44.0964 31.404 34.0189 18.7955 23.9899 6.13917C23.2944 3.95814 24.1356 2.63679 26.1413 2H50.1623L68.6834 26.3415L83.2739 44.2036L68.6996 62.2089L50.874 85.5634C42.7538 85.5634 34.6497 85.5315 26.5295 85.5156C24.4591 84.7515 23.6341 83.5415 24.2811 81.8063L54.1415 44.0762L54.1253 44.0603Z" fill="#078F96"/>
<path id="Vector_2" d="M23.6241 43.4269C16.4884 34.0622 9.30541 24.7296 2.16967 15.3648C1.68135 13.753 2.26418 12.7698 3.69763 12.3023H20.7888L33.9734 30.3066L44.354 43.5236L33.9734 56.8374L21.2771 74.1163C15.496 74.1163 9.73073 74.1002 3.94968 74.0841C2.48472 73.52 1.88611 72.6335 2.34292 71.344L23.5927 43.4269H23.6241Z" fill="#231F20"/>
</g>
</g>
<defs>
<filter id="filter0_d_5_6" x="0.58" y="0.58" width="86.9539" height="89.2434" filterUnits="userSpaceOnUse" color-interpolation-filters="sRGB">
<feFlood flood-opacity="0" result="BackgroundImageFix"/>
<feColorMatrix in="SourceAlpha" type="matrix" values="0 0 0 0 0 0 0 0 0 0 0 0 0 0 0 0 0 0 127 0" result="hardAlpha"/>
<feOffset dx="1.42" dy="1.42"/>
<feGaussianBlur stdDeviation="1.42"/>
<feColorMatrix type="matrix" values="0 0 0 0 0.168627 0 0 0 0 0.145098 0 0 0 0 0.133333 0 0 0 0.3 0"/>
<feBlend mode="normal" in2="BackgroundImageFix" result="effect1_dropShadow_5_6"/>
<feBlend mode="normal" in="SourceGraphic" in2="effect1_dropShadow_5_6" result="shape"/>
</filter>
</defs>
</svg>
