<svg width="27" height="27" viewBox="0 0 27 27" fill="none" xmlns="http://www.w3.org/2000/svg">
<path id="Vector" d="M16.2367 1.88029C16.2734 1.74323 16.3367 1.61473 16.4231 1.50214C16.5094 1.38956 16.6171 1.29508 16.7399 1.22412C16.8628 1.15316 16.9984 1.10711 17.1391 1.08859C17.2798 1.07007 17.4227 1.07945 17.5598 1.11619C19.5619 1.63857 21.3887 2.68523 22.8518 4.14837C24.3149 5.6115 25.3616 7.43821 25.884 9.44037C25.9207 9.57741 25.9301 9.72035 25.9116 9.86102C25.8931 10.0017 25.847 10.1373 25.7761 10.2602C25.7051 10.3831 25.6106 10.4907 25.498 10.5771C25.3855 10.6634 25.257 10.7267 25.1199 10.7634C25.0287 10.7873 24.9348 10.7996 24.8404 10.7998C24.6024 10.7998 24.3711 10.7212 24.1824 10.5762C23.9937 10.4312 23.8582 10.2279 23.7969 9.99792C23.3708 8.36349 22.5166 6.87225 21.3222 5.67791C20.1279 4.48357 18.6366 3.62936 17.0022 3.20331C16.865 3.16679 16.7364 3.10359 16.6236 3.01731C16.5109 2.93103 16.4163 2.82338 16.3452 2.7005C16.2741 2.57762 16.2279 2.44193 16.2093 2.30119C16.1907 2.16045 16.2 2.01743 16.2367 1.88029ZM15.9222 7.52335C17.7839 8.02015 18.98 9.21627 19.4768 11.0779C19.5381 11.3079 19.6736 11.5112 19.8623 11.6562C20.051 11.8012 20.2824 11.8798 20.5204 11.8798C20.6147 11.8796 20.7086 11.8674 20.7998 11.8434C20.9369 11.8067 21.0654 11.7434 21.178 11.6571C21.2906 11.5707 21.385 11.4631 21.456 11.3402C21.527 11.2173 21.573 11.0817 21.5915 10.941C21.6101 10.8004 21.6007 10.6574 21.5639 10.5204C20.8727 7.93375 19.0664 6.12744 16.4797 5.43623C16.3427 5.39962 16.1998 5.39036 16.0592 5.40898C15.9185 5.4276 15.783 5.47374 15.6602 5.54476C15.5374 5.61577 15.4298 5.71028 15.3435 5.82288C15.2573 5.93548 15.194 6.06397 15.1574 6.20101C15.1208 6.33805 15.1115 6.48096 15.1301 6.62158C15.1488 6.76221 15.1949 6.89778 15.2659 7.02057C15.3369 7.14336 15.4314 7.25096 15.5441 7.33723C15.6567 7.4235 15.7851 7.48674 15.9222 7.52335ZM26.9843 20.3957C26.7436 22.225 25.8452 23.9042 24.4569 25.1195C23.0686 26.3349 21.2854 27.0033 19.4403 27C8.72116 27 1.22159e-05 18.2789 1.22159e-05 7.5598C-0.00329531 5.71472 0.665151 3.93154 1.8805 2.54328C3.09586 1.15503 4.775 0.256643 6.60433 0.015927C7.06691 -0.0405563 7.53537 0.0540809 7.93975 0.285711C8.34413 0.517342 8.66276 0.873542 8.84806 1.30114L11.6993 7.66645V7.68265C11.8412 8.00997 11.8998 8.36732 11.8699 8.7228C11.8399 9.07829 11.7224 9.42082 11.5279 9.71982C11.5036 9.75627 11.4779 9.79002 11.4509 9.82377L8.64016 13.1556C9.65133 15.2103 11.8006 17.3406 13.8823 18.3545L17.1683 15.5586C17.2005 15.5315 17.2343 15.5063 17.2695 15.483C17.5683 15.2838 17.912 15.1621 18.2696 15.1291C18.6271 15.0961 18.9873 15.1528 19.3175 15.294L19.335 15.3021L25.695 18.152C26.1234 18.3366 26.4804 18.655 26.7128 19.0594C26.9452 19.4639 27.0405 19.9327 26.9843 20.3957ZM24.8404 20.1257C24.8404 20.1257 24.831 20.1257 24.8256 20.1257L18.4805 17.2839L15.1932 20.0798C15.1613 20.1068 15.1279 20.1321 15.0933 20.1554C14.7824 20.3628 14.4231 20.486 14.0504 20.513C13.6778 20.5399 13.3044 20.4698 12.967 20.3093C10.4384 19.0876 7.9179 16.586 6.69478 14.0844C6.53281 13.7494 6.46014 13.3783 6.48379 13.0069C6.50744 12.6356 6.62662 12.2766 6.82978 11.9649C6.85268 11.9283 6.87841 11.8935 6.90673 11.8609L9.72018 8.52506L6.88513 2.18C6.8846 2.17461 6.8846 2.16918 6.88513 2.1638C5.57595 2.33457 4.37392 2.97673 3.50415 3.97C2.63437 4.96327 2.15651 6.23954 2.16005 7.5598C2.16505 12.1412 3.98726 16.5336 7.22686 19.7732C10.4665 23.0128 14.8589 24.835 19.4403 24.84C20.7598 24.8445 22.0357 24.3683 23.0296 23.5004C24.0235 22.6325 24.6672 21.4324 24.8404 20.1244V20.1257Z" fill="white"/>
</svg>
