<svg width="47" height="48" viewBox="0 0 47 48" fill="none" xmlns="http://www.w3.org/2000/svg">
<path id="Vector" d="M14.0351 18.2632H2.45613C1.94431 18.2632 1.45345 18.0599 1.09154 17.698C0.729627 17.3361 0.526306 16.8452 0.526306 16.3334V4.75442C0.526306 4.2426 0.729627 3.75174 1.09154 3.38983C1.45345 3.02792 1.94431 2.8246 2.45613 2.8246C2.96795 2.8246 3.45881 3.02792 3.82072 3.38983C4.18263 3.75174 4.38596 4.2426 4.38596 4.75442V10.5077C8.11775 6.29828 14.6647 0.894775 23.6842 0.894775C34.0136 0.894775 40.2276 6.99061 40.4881 7.24872C40.8509 7.6102 41.0552 8.10097 41.0561 8.61307C41.057 9.12518 40.8544 9.61667 40.493 9.97942C40.1315 10.3422 39.6407 10.5465 39.1286 10.5474C38.6165 10.5483 38.125 10.3457 37.7623 9.98425C37.6971 9.91912 32.3491 4.75442 23.6842 4.75442C15.2412 4.75442 9.15503 10.7007 6.18069 14.4035H14.0351C14.5469 14.4035 15.0378 14.6069 15.3997 14.9688C15.7616 15.3307 15.9649 15.8215 15.9649 16.3334C15.9649 16.8452 15.7616 17.3361 15.3997 17.698C15.0378 18.0599 14.5469 18.2632 14.0351 18.2632ZM44.9123 29.8421H33.3333C32.8215 29.8421 32.3306 30.0455 31.9687 30.4074C31.6068 30.7693 31.4035 31.2601 31.4035 31.772C31.4035 32.2838 31.6068 32.7746 31.9687 33.1366C32.3306 33.4985 32.8215 33.7018 33.3333 33.7018H41.1877C38.2134 37.4046 32.1272 43.3509 23.6842 43.3509C15.0193 43.3509 9.67126 38.1862 9.60613 38.1211C9.24338 37.7596 8.75189 37.557 8.23978 37.558C7.72767 37.5589 7.2369 37.7632 6.87543 38.1259C6.51395 38.4887 6.31139 38.9802 6.31229 39.4923C6.3132 40.0044 6.5175 40.4951 6.88025 40.8566C7.14078 41.1147 13.3548 47.2106 23.6842 47.2106C32.7037 47.2106 39.2506 41.8071 42.9824 37.5976V43.3509C42.9824 43.8627 43.1858 44.3536 43.5477 44.7155C43.9096 45.0774 44.4004 45.2807 44.9123 45.2807C45.4241 45.2807 45.915 45.0774 46.2769 44.7155C46.6388 44.3536 46.8421 43.8627 46.8421 43.3509V31.772C46.8421 31.2601 46.6388 30.7693 46.2769 30.4074C45.915 30.0455 45.4241 29.8421 44.9123 29.8421Z" fill="#078F96"/>
</svg>
