<svg width="14" height="13" viewBox="0 0 14 13" fill="none" xmlns="http://www.w3.org/2000/svg">
<path id="Vector" d="M13.2105 12.1918L8.77686 7.6348C9.54777 6.71425 9.93219 5.53352 9.85014 4.33825C9.7681 3.14297 9.2259 2.02517 8.33635 1.21737C7.4468 0.409577 6.27839 -0.0260178 5.07416 0.00120308C3.86994 0.0284239 2.72262 0.516365 1.87089 1.36352C1.01916 2.21068 0.528578 3.35182 0.50121 4.54957C0.473842 5.74733 0.91179 6.90946 1.72395 7.79423C2.53611 8.679 3.65996 9.21828 4.86169 9.29988C6.06343 9.38149 7.25054 8.99914 8.17606 8.23237L12.6092 12.7899C12.6487 12.8292 12.6955 12.8604 12.7471 12.8816C12.7987 12.9029 12.854 12.9138 12.9099 12.9138C12.9657 12.9138 13.021 12.9029 13.0726 12.8816C13.1242 12.8604 13.171 12.8292 13.2105 12.7899C13.25 12.7507 13.2813 12.704 13.3027 12.6527C13.3241 12.6014 13.3351 12.5464 13.3351 12.4909C13.3351 12.4354 13.3241 12.3804 13.3027 12.329C13.2813 12.2777 13.25 12.2311 13.2105 12.1918ZM1.36168 4.66121C1.36168 3.90882 1.586 3.17332 2.00626 2.54773C2.42653 1.92214 3.02387 1.43455 3.72274 1.14662C4.42162 0.858695 5.19065 0.78336 5.93257 0.930144C6.67449 1.07693 7.35599 1.43924 7.89089 1.97126C8.42579 2.50328 8.79006 3.18112 8.93764 3.91906C9.08521 4.65699 9.00947 5.42188 8.71999 6.117C8.4305 6.81212 7.94028 7.40625 7.31131 7.82426C6.68233 8.24227 5.94286 8.46538 5.1864 8.46538C4.17237 8.46426 3.20019 8.06311 2.48316 7.34993C1.76613 6.63675 1.3628 5.6698 1.36168 4.66121Z" fill="black"/>
</svg>
