<svg width="49" height="48" viewBox="0 0 49 48" fill="none" xmlns="http://www.w3.org/2000/svg">
<path id="Vector" d="M47.936 18.327C47.7307 17.6867 47.3438 17.1215 46.8235 16.7021C46.3032 16.2826 45.6724 16.0274 45.0098 15.9681L32.4257 14.8701L27.4929 2.99811C27.236 2.37516 26.8029 1.84305 26.2478 1.46877C25.6928 1.09449 25.0408 0.894775 24.3739 0.894775C23.7069 0.894775 23.0549 1.09449 22.4999 1.46877C21.9449 1.84305 21.5117 2.37516 21.2548 2.99811L16.3369 14.8701L3.73791 15.9745C3.07265 16.0311 2.43871 16.2852 1.91557 16.705C1.39244 17.1247 1.0034 17.6915 0.797247 18.3341C0.591094 18.9768 0.577004 19.6667 0.756742 20.3174C0.93648 20.9682 1.30205 21.5507 1.8076 21.992L11.3659 30.4456L8.50119 42.9996C8.34971 43.6565 8.39293 44.3441 8.62546 44.9763C8.85799 45.6086 9.2695 46.1574 9.80854 46.5542C10.3476 46.951 10.9902 47.1782 11.6562 47.2074C12.3221 47.2365 12.9817 47.0664 13.5526 46.7181L24.359 40.0702L35.1887 46.7181C35.7596 47.0664 36.4192 47.2365 37.0852 47.2074C37.7511 47.1782 38.3938 46.951 38.9328 46.5542C39.4718 46.1574 39.8834 45.6086 40.1159 44.9763C40.3484 44.3441 40.3916 43.6565 40.2402 42.9996L37.3775 30.4328L46.9337 21.992C47.4392 21.5492 47.8041 20.965 47.9824 20.3129C48.1607 19.6608 48.1446 18.9699 47.936 18.327ZM44.711 19.3993L35.1548 27.8401C34.6897 28.2495 34.3437 28.7796 34.154 29.3732C33.9644 29.9668 33.9382 30.6015 34.0784 31.2091L36.9495 43.7845L26.1283 37.1365C25.6003 36.8111 24.9941 36.639 24.376 36.639C23.7578 36.639 23.1516 36.8111 22.6236 37.1365L11.8173 43.7845L14.6693 31.2177C14.8095 30.6101 14.7833 29.9754 14.5936 29.3818C14.404 28.7881 14.058 28.2581 13.5929 27.8486L4.03244 19.4122C4.03166 19.4057 4.03166 19.3993 4.03244 19.3929L16.6272 18.2906C17.2421 18.2357 17.8305 18.012 18.329 17.6435C18.8275 17.275 19.2171 16.7758 19.4559 16.1997L24.3739 4.34271L29.2897 16.1997C29.5284 16.7758 29.9181 17.275 30.4166 17.6435C30.9151 18.012 31.5035 18.2357 32.1184 18.2906L44.7153 19.3929C44.7153 19.3929 44.7153 19.4057 44.7153 19.4079L44.711 19.3993Z" fill="#078F96"/>
</svg>
