<svg width="21" height="27" viewBox="0 0 21 27" fill="none" xmlns="http://www.w3.org/2000/svg">
<path id="Vector" d="M10.5 5.78577C9.55604 5.78577 8.63329 6.06855 7.84841 6.59834C7.06354 7.12813 6.45181 7.88114 6.09057 8.76215C5.72934 9.64316 5.63482 10.6126 5.81898 11.5479C6.00314 12.4831 6.45769 13.3423 7.12517 14.0165C7.79265 14.6908 8.64307 15.15 9.56889 15.3361C10.4947 15.5221 11.4543 15.4266 12.3264 15.0617C13.1985 14.6968 13.9439 14.0788 14.4684 13.2859C14.9928 12.493 15.2727 11.5608 15.2727 10.6072C15.2727 9.32851 14.7699 8.10215 13.8748 7.19795C12.9798 6.29375 11.7658 5.78577 10.5 5.78577ZM10.5 13.5001C9.93363 13.5001 9.37997 13.3305 8.90905 13.0126C8.43813 12.6947 8.07109 12.2429 7.85434 11.7143C7.6376 11.1857 7.58089 10.604 7.69139 10.0429C7.80188 9.48171 8.07462 8.96625 8.4751 8.56167C8.87559 8.15709 9.38584 7.88157 9.94133 7.76995C10.4968 7.65833 11.0726 7.71561 11.5959 7.93457C12.1191 8.15353 12.5664 8.52431 12.881 9.00005C13.1957 9.47578 13.3636 10.0351 13.3636 10.6072C13.3636 11.3745 13.0619 12.1103 12.5249 12.6528C11.9879 13.1954 11.2595 13.5001 10.5 13.5001ZM10.5 0C7.7162 0.00319029 5.04731 1.12176 3.07887 3.11032C1.11042 5.09887 0.00315803 7.79501 0 10.6072C0 14.3921 1.73131 18.4036 5.01136 22.2089C6.48521 23.9285 8.14401 25.4769 9.9571 26.8255C10.1176 26.9391 10.3088 27 10.5048 27C10.7007 27 10.8919 26.9391 11.0524 26.8255C12.8622 25.4763 14.5178 23.9279 15.9886 22.2089C19.2639 18.4036 21 14.3921 21 10.6072C20.9968 7.79501 19.8896 5.09887 17.9211 3.11032C15.9527 1.12176 13.2838 0.00319029 10.5 0ZM10.5 24.8306C8.52767 23.2636 1.90909 17.508 1.90909 10.6072C1.90909 8.30553 2.8142 6.09807 4.42531 4.47051C6.03642 2.84295 8.22155 1.92859 10.5 1.92859C12.7785 1.92859 14.9636 2.84295 16.5747 4.47051C18.1858 6.09807 19.0909 8.30553 19.0909 10.6072C19.0909 17.5056 12.4723 23.2636 10.5 24.8306Z" fill="#078F96"/>
</svg>
