<svg width="31" height="31" viewBox="0 0 31 31" fill="none" xmlns="http://www.w3.org/2000/svg">
<g id="Group 54">
<path id="Vector" d="M6.22132 23.7983C8.5638 21.3395 10.8909 18.897 13.2292 16.4426C10.8107 13.3624 8.39811 10.2899 5.96154 7.18684C6.05867 7.1744 6.1243 7.15877 6.18982 7.15877C8.033 7.15741 9.87628 7.16003 11.7195 7.15381C11.8979 7.15323 11.9996 7.21666 12.103 7.34847C13.5237 9.16086 14.9504 10.9692 16.3762 12.778C16.4193 12.8327 16.4697 12.882 16.5379 12.9571C16.827 12.6571 17.1054 12.3698 17.3821 12.0809C18.9074 10.4884 20.4315 8.89452 21.9607 7.30524C22.0273 7.23599 22.1386 7.16712 22.2304 7.16557C22.8996 7.15372 23.569 7.15886 24.2385 7.16022C24.2619 7.16022 24.2853 7.17683 24.3463 7.20005C22.0812 9.5693 19.8305 11.9236 17.5656 14.2927C20.0521 17.4617 22.5298 20.6195 25.0385 23.8168C24.915 23.8272 24.8387 23.8391 24.7625 23.8391C22.9376 23.8404 21.1128 23.8363 19.2879 23.8461C19.0795 23.8473 18.9746 23.7561 18.8656 23.6171C17.3891 21.7347 15.91 19.8543 14.431 17.9737C14.3823 17.9117 14.3281 17.8537 14.2585 17.7732C13.8344 18.2165 13.4211 18.6475 13.009 19.0794C11.5426 20.6163 10.0776 22.1543 8.60756 23.6879C8.54041 23.7579 8.43072 23.831 8.33947 23.8326C7.67032 23.8443 7.00076 23.8383 6.33141 23.8364C6.30761 23.8364 6.28391 23.8206 6.22142 23.7983H6.22132ZM8.7142 8.40235C8.78834 8.50755 8.82541 8.56563 8.86795 8.61993C10.989 11.3233 13.11 14.0268 15.2321 16.7293C16.7148 18.6177 18.1981 20.5056 19.687 22.3894C19.7551 22.4757 19.8804 22.5724 19.9811 22.5744C20.7142 22.5894 21.4477 22.5817 22.1812 22.579C22.2012 22.579 22.2211 22.5545 22.2494 22.536C22.1974 22.4649 22.1524 22.3992 22.1032 22.3366C19.4676 18.9816 16.8315 15.6271 14.1959 12.2721C13.2365 11.0508 12.2802 9.82719 11.3162 8.60924C11.2463 8.52095 11.1257 8.41362 11.0263 8.41139C10.2762 8.39478 9.52565 8.40235 8.7141 8.40235H8.7142Z" fill="#078F96"/>
<rect id="Rectangle 27" x="1" y="1" width="29" height="29" rx="1" stroke="#078F96" stroke-width="2"/>
</g>
</svg>
