<svg width="50" height="50" viewBox="0 0 50 50" fill="none" xmlns="http://www.w3.org/2000/svg">
<g id="UsersThree">
<path id="Vector" d="M47.5158 29.3488C47.3527 29.4712 47.167 29.5602 46.9695 29.6108C46.772 29.6614 46.5664 29.6726 46.3645 29.6438C46.1626 29.6149 45.9684 29.5466 45.793 29.4427C45.6175 29.3388 45.4642 29.2014 45.3419 29.0383C44.4059 27.7802 43.1877 26.7595 41.7853 26.0583C40.3828 25.357 38.8353 24.9949 37.2673 25.001C36.9619 25.0009 36.6634 24.9109 36.4089 24.7421C36.1545 24.5732 35.9555 24.3332 35.8368 24.0518C35.7562 23.8608 35.7146 23.6555 35.7146 23.4482C35.7146 23.2408 35.7562 23.0356 35.8368 22.8445C35.9555 22.5632 36.1545 22.3231 36.4089 22.1543C36.6634 21.9854 36.9619 21.8954 37.2673 21.8954C38.1386 21.8953 38.9923 21.6509 39.7317 21.1899C40.471 20.7289 41.0662 20.0698 41.4497 19.2875C41.8332 18.5052 41.9897 17.631 41.9013 16.7642C41.8128 15.8975 41.4831 15.0729 40.9496 14.3841C40.416 13.6953 39.7 13.17 38.8828 12.8678C38.0656 12.5656 37.1801 12.4986 36.3267 12.6744C35.4734 12.8502 34.6865 13.2618 34.0554 13.8625C33.4242 14.4631 32.9742 15.2288 32.7564 16.0724C32.7054 16.2699 32.616 16.4555 32.4933 16.6185C32.3706 16.7815 32.217 16.9187 32.0413 17.0223C31.8656 17.126 31.6711 17.194 31.4691 17.2225C31.2671 17.251 31.0615 17.2394 30.8639 17.1884C30.6664 17.1374 30.4808 17.0481 30.3178 16.9254C30.1548 16.8027 30.0176 16.6491 29.9139 16.4733C29.8103 16.2976 29.7423 16.1032 29.7138 15.9012C29.6853 15.6991 29.6969 15.4935 29.7478 15.2959C30.0502 14.1261 30.6213 13.043 31.4159 12.1328C32.2105 11.2226 33.2066 10.5103 34.3248 10.0528C35.4431 9.59527 36.6527 9.40504 37.8574 9.49726C39.0622 9.58947 40.2287 9.96158 41.2644 10.584C42.3 11.2064 43.176 12.0619 43.8228 13.0825C44.4696 14.103 44.8693 15.2604 44.99 16.4626C45.1108 17.6648 44.9493 18.8786 44.5184 20.0074C44.0875 21.1363 43.3991 22.1489 42.508 22.9649C44.6194 23.8791 46.455 25.3298 47.8322 27.173C47.9545 27.3365 48.0434 27.5226 48.0937 27.7205C48.144 27.9185 48.1548 28.1244 48.1254 28.3265C48.096 28.5287 48.0271 28.723 47.9225 28.8984C47.8178 29.0738 47.6797 29.2269 47.5158 29.3488ZM37.0577 41.3054C37.17 41.4822 37.2455 41.6798 37.2794 41.8864C37.3134 42.0931 37.3053 42.3045 37.2554 42.5079C37.2056 42.7113 37.1152 42.9025 36.9895 43.0701C36.8639 43.2376 36.7056 43.378 36.5243 43.4828C36.343 43.5876 36.1424 43.6547 35.9345 43.6799C35.7266 43.7052 35.5157 43.6881 35.3146 43.6298C35.1135 43.5714 34.9262 43.473 34.7641 43.3404C34.602 43.2078 34.4684 43.0438 34.3713 42.8582C33.3931 41.2019 32 39.8292 30.3294 38.8757C28.6588 37.9221 26.7685 37.4206 24.8449 37.4206C22.9213 37.4206 21.0309 37.9221 19.3603 38.8757C17.6897 39.8292 16.2966 41.2019 15.3184 42.8582C15.2213 43.0438 15.0877 43.2078 14.9256 43.3404C14.7635 43.473 14.5763 43.5714 14.3751 43.6298C14.174 43.6881 13.9632 43.7052 13.7553 43.6799C13.5474 43.6547 13.3467 43.5876 13.1654 43.4828C12.9841 43.378 12.8259 43.2376 12.7002 43.0701C12.5746 42.9025 12.4841 42.7113 12.4343 42.5079C12.3845 42.3045 12.3763 42.0931 12.4103 41.8864C12.4443 41.6798 12.5197 41.4822 12.6321 41.3054C14.1375 38.7188 16.4329 36.6833 19.181 35.4979C17.6347 34.314 16.4982 32.6752 15.9314 30.812C15.3646 28.9488 15.3959 26.9548 16.0209 25.1103C16.6459 23.2657 17.8333 21.6635 19.416 20.5287C20.9988 19.3938 22.8973 18.7835 24.8449 18.7835C26.7924 18.7835 28.691 19.3938 30.2737 20.5287C31.8565 21.6635 33.0438 23.2657 33.6688 25.1103C34.2939 26.9548 34.3252 28.9488 33.7583 30.812C33.1915 32.6752 32.0551 34.314 30.5087 35.4979C33.2568 36.6833 35.5522 38.7188 37.0577 41.3054ZM24.8449 34.3178C26.0733 34.3178 27.2742 33.9535 28.2956 33.271C29.3171 32.5885 30.1132 31.6185 30.5833 30.4835C31.0534 29.3486 31.1764 28.0997 30.9367 26.8948C30.6971 25.69 30.1055 24.5832 29.2369 23.7146C28.3682 22.8459 27.2615 22.2544 26.0566 22.0147C24.8518 21.7751 23.6029 21.8981 22.4679 22.3682C21.333 22.8383 20.3629 23.6344 19.6804 24.6558C18.9979 25.6772 18.6336 26.8781 18.6336 28.1066C18.6336 29.7539 19.288 31.3337 20.4529 32.4986C21.6177 33.6634 23.1975 34.3178 24.8449 34.3178ZM13.9752 23.4482C13.9752 23.0363 13.8116 22.6414 13.5204 22.3502C13.2292 22.059 12.8343 21.8954 12.4224 21.8954C11.5512 21.8953 10.6974 21.6509 9.95807 21.1899C9.21875 20.7289 8.62353 20.0698 8.24002 19.2875C7.8565 18.5052 7.70006 17.631 7.78847 16.7642C7.87688 15.8975 8.2066 15.0729 8.74017 14.3841C9.27373 13.6953 9.98977 13.17 10.8069 12.8678C11.6241 12.5656 12.5096 12.4986 13.363 12.6744C14.2163 12.8502 15.0032 13.2618 15.6344 13.8625C16.2655 14.4631 16.7155 15.2288 16.9333 16.0724C17.0363 16.4713 17.2935 16.813 17.6484 17.0223C18.0033 17.2316 18.4268 17.2914 18.8258 17.1884C19.2248 17.0855 19.5665 16.8282 19.7758 16.4733C19.9851 16.1184 20.0448 15.6949 19.9419 15.2959C19.6396 14.1261 19.0684 13.043 18.2738 12.1328C17.4792 11.2226 16.4832 10.5103 15.3649 10.0528C14.2466 9.59527 13.037 9.40504 11.8323 9.49726C10.6276 9.58947 9.46098 9.96158 8.42537 10.584C7.38976 11.2064 6.51371 12.0619 5.86692 13.0825C5.22013 14.103 4.82046 15.2604 4.69969 16.4626C4.57893 17.6648 4.74042 18.8786 5.17131 20.0074C5.6022 21.1363 6.29059 22.1489 7.18172 22.9649C5.0724 23.8799 3.23898 25.3306 1.86337 27.173C1.61601 27.5024 1.50967 27.9167 1.56772 28.3245C1.62578 28.7324 1.84349 29.1005 2.17296 29.3479C2.50242 29.5952 2.91665 29.7016 3.32452 29.6435C3.73239 29.5854 4.1005 29.3677 4.34785 29.0383C5.28378 27.7802 6.50201 26.7595 7.90447 26.0583C9.30693 25.357 10.8544 24.9949 12.4224 25.001C12.8343 25.001 13.2292 24.8374 13.5204 24.5462C13.8116 24.255 13.9752 23.86 13.9752 23.4482Z" fill="#078F96"/>
</g>
</svg>
