<?xml version="1.0" encoding="utf-8"?>
<!-- Generator: Adobe Illustrator 27.0.0, SVG Export Plug-In . SVG Version: 6.00 Build 0)  -->
<svg version="1.1" id="Layer_1" xmlns="http://www.w3.org/2000/svg" xmlns:xlink="http://www.w3.org/1999/xlink" x="0px" y="0px"
	 viewBox="0 0 347 161" style="enable-background:new 0 0 347 161;" xml:space="preserve">
<style type="text/css">
	.st0{fill:#3FA8AE;}
	.st1{fill:#FF009C;}
	.st2{fill:none;stroke:#000000;stroke-width:0.5669;stroke-linecap:round;stroke-linejoin:round;stroke-miterlimit:22.9256;}
	.st3{fill-rule:evenodd;clip-rule:evenodd;fill:#FFFFFF;}
	.st4{fill-rule:evenodd;clip-rule:evenodd;}
	.st5{fill-rule:evenodd;clip-rule:evenodd;fill:#078F96;}
	.st6{fill-rule:evenodd;clip-rule:evenodd;fill:#45ABB1;}
	.st7{fill-rule:evenodd;clip-rule:evenodd;fill:#83C7CB;}
	.st8{fill:#078F96;}
	.st9{fill-rule:evenodd;clip-rule:evenodd;fill:#5B146F;}
	.st10{fill-rule:evenodd;clip-rule:evenodd;fill:#AC0A85;}
	.st11{fill-rule:evenodd;clip-rule:evenodd;fill:#FF009C;}
	.st12{fill:#5B146F;}
	.st13{fill:#AC0A85;}
	.st14{fill:#45ABB1;}
	.st15{fill:#83C7CB;}
	
		.st16{clip-path:url(#SVGID_00000078753780255916276370000003336681312647538621_);fill:url(#SVGID_00000034068665135698085350000011147928100907249073_);}
	
		.st17{clip-path:url(#SVGID_00000150097401560965688290000006155037577744925107_);fill:url(#SVGID_00000176742314110918006520000005258053141424605609_);}
	
		.st18{clip-path:url(#SVGID_00000000935796823841104050000018359616445305557157_);fill:url(#SVGID_00000110457603880161221720000011313754479867071664_);}
</style>
<g>
	<path d="M19.7,136.4h-3v9.9c0,0.6-0.1,1-0.4,1.3c-0.3,0.3-0.6,0.4-1,0.4c-0.4,0-0.7-0.1-1-0.4c-0.3-0.3-0.4-0.7-0.4-1.3v-9.9h-3
		c-0.5,0-0.8-0.1-1.1-0.3c-0.2-0.2-0.3-0.5-0.3-0.8c0-0.4,0.1-0.6,0.4-0.8s0.6-0.3,1-0.3h8.8c0.5,0,0.8,0.1,1.1,0.3
		c0.2,0.2,0.3,0.5,0.3,0.8c0,0.3-0.1,0.6-0.4,0.8C20.5,136.3,20.2,136.4,19.7,136.4z"/>
</g>
<g>
	<path d="M27.5,146.6c-0.6,0.5-1.2,0.8-1.8,1.1c-0.6,0.2-1.2,0.4-1.9,0.4c-0.7,0-1.2-0.1-1.7-0.4c-0.5-0.3-0.9-0.6-1.1-1
		c-0.3-0.4-0.4-0.9-0.4-1.4c0-0.7,0.2-1.3,0.7-1.8c0.4-0.5,1-0.8,1.8-1c0.2,0,0.6-0.1,1.2-0.3c0.6-0.1,1.2-0.2,1.6-0.4
		s1-0.2,1.5-0.4c0-0.7-0.2-1.2-0.4-1.5c-0.2-0.3-0.7-0.5-1.5-0.5c-0.6,0-1.1,0.1-1.5,0.3c-0.3,0.2-0.6,0.4-0.8,0.8
		c-0.2,0.4-0.4,0.6-0.5,0.7c-0.1,0.1-0.3,0.2-0.6,0.2c-0.3,0-0.5-0.1-0.7-0.3s-0.3-0.4-0.3-0.7c0-0.4,0.2-0.9,0.5-1.3s0.8-0.8,1.5-1
		c0.7-0.3,1.5-0.4,2.5-0.4c1.1,0,2,0.1,2.6,0.4c0.6,0.3,1.1,0.7,1.4,1.3c0.3,0.6,0.4,1.3,0.4,2.3c0,0.6,0,1.1,0,1.5
		c0,0.4,0,0.9,0,1.4c0,0.5,0.1,1,0.2,1.5s0.2,0.9,0.2,1c0,0.3-0.1,0.5-0.4,0.7s-0.5,0.3-0.8,0.3c-0.3,0-0.5-0.1-0.8-0.4
		C28,147.4,27.8,147.1,27.5,146.6z M27.3,142.9c-0.4,0.1-0.9,0.3-1.6,0.4s-1.2,0.3-1.5,0.3s-0.5,0.2-0.8,0.4
		c-0.2,0.2-0.4,0.5-0.4,0.9c0,0.4,0.1,0.7,0.4,1c0.3,0.3,0.7,0.4,1.1,0.4c0.5,0,1-0.1,1.4-0.3s0.7-0.5,0.9-0.9
		c0.2-0.4,0.3-1,0.3-1.9V142.9z"/>
</g>
<g>
	<path d="M37.3,147l-1.8-2.7l-1.9,2.7c-0.3,0.4-0.5,0.6-0.7,0.8c-0.2,0.2-0.4,0.2-0.7,0.2c-0.3,0-0.6-0.1-0.8-0.3S31,147.3,31,147
		c0-0.3,0.2-0.6,0.5-1.1l2.3-3.3l-2-2.7c-0.4-0.5-0.5-0.8-0.5-1.2c0-0.3,0.1-0.5,0.3-0.7s0.5-0.3,0.8-0.3c0.3,0,0.5,0.1,0.7,0.3
		c0.2,0.2,0.4,0.4,0.7,0.8l1.6,2.3l1.6-2.3c0.3-0.4,0.5-0.6,0.7-0.8c0.2-0.2,0.4-0.2,0.7-0.2c0.3,0,0.6,0.1,0.8,0.3
		c0.2,0.2,0.3,0.4,0.3,0.7c0,0.2,0,0.4-0.1,0.6c-0.1,0.2-0.2,0.4-0.4,0.6l-2,2.7l2.3,3.3c0.4,0.5,0.5,0.9,0.5,1.2
		c0,0.3-0.1,0.5-0.3,0.7c-0.2,0.2-0.5,0.3-0.8,0.3c-0.3,0-0.5-0.1-0.7-0.3S37.6,147.4,37.3,147z"/>
</g>
<g>
	<path d="M61.9,146.3l-0.7-1.7h-5.5l-0.7,1.7c-0.3,0.7-0.5,1.1-0.7,1.4c-0.2,0.2-0.5,0.4-0.9,0.4c-0.3,0-0.7-0.1-0.9-0.4
		c-0.3-0.3-0.4-0.5-0.4-0.9c0-0.2,0-0.4,0.1-0.6s0.2-0.5,0.3-0.8l3.5-8.9c0.1-0.3,0.2-0.6,0.4-0.9s0.3-0.7,0.4-0.9s0.4-0.4,0.6-0.6
		c0.3-0.1,0.6-0.2,1-0.2c0.4,0,0.7,0.1,1,0.2c0.3,0.1,0.5,0.3,0.6,0.6s0.3,0.5,0.4,0.7s0.2,0.6,0.4,1.1l3.6,8.8
		c0.3,0.7,0.4,1.2,0.4,1.5c0,0.3-0.1,0.6-0.4,0.9c-0.3,0.3-0.6,0.4-1,0.4c-0.2,0-0.4,0-0.6-0.1c-0.2-0.1-0.3-0.2-0.4-0.3
		c-0.1-0.1-0.2-0.3-0.3-0.6C62.1,146.7,62,146.5,61.9,146.3z M56.5,142.5h4.1l-2.1-5.6L56.5,142.5z"/>
</g>
<g>
	<path d="M75.3,144.9c0,0.3-0.1,0.7-0.3,1c-0.2,0.4-0.5,0.7-0.9,1s-0.9,0.6-1.5,0.8c-0.6,0.2-1.3,0.3-2,0.3c-1.6,0-2.8-0.5-3.7-1.4
		c-0.9-0.9-1.3-2.1-1.3-3.7c0-1,0.2-2,0.6-2.8s1-1.4,1.7-1.9c0.8-0.4,1.7-0.7,2.7-0.7c0.7,0,1.3,0.1,1.8,0.3c0.5,0.2,1,0.4,1.4,0.7
		c0.4,0.3,0.7,0.6,0.9,1s0.3,0.7,0.3,1c0,0.3-0.1,0.6-0.3,0.8c-0.2,0.2-0.5,0.3-0.8,0.3c-0.2,0-0.4-0.1-0.5-0.2
		c-0.1-0.1-0.3-0.3-0.5-0.5c-0.3-0.5-0.6-0.8-1-1.1c-0.3-0.2-0.8-0.4-1.3-0.4c-0.8,0-1.4,0.3-1.8,0.9c-0.5,0.6-0.7,1.4-0.7,2.4
		c0,0.5,0.1,0.9,0.2,1.3c0.1,0.4,0.3,0.7,0.5,1c0.2,0.3,0.5,0.5,0.8,0.6c0.3,0.1,0.7,0.2,1,0.2c0.5,0,0.9-0.1,1.3-0.4s0.7-0.6,1-1.1
		c0.2-0.3,0.3-0.5,0.5-0.7c0.2-0.2,0.4-0.2,0.7-0.2c0.3,0,0.6,0.1,0.8,0.4C75.2,144.4,75.3,144.6,75.3,144.9z"/>
</g>
<g>
	<path d="M86.1,144.9c0,0.3-0.1,0.7-0.3,1c-0.2,0.4-0.5,0.7-0.9,1s-0.9,0.6-1.5,0.8c-0.6,0.2-1.3,0.3-2,0.3c-1.6,0-2.8-0.5-3.7-1.4
		c-0.9-0.9-1.3-2.1-1.3-3.7c0-1,0.2-2,0.6-2.8s1-1.4,1.7-1.9c0.8-0.4,1.7-0.7,2.7-0.7c0.7,0,1.3,0.1,1.8,0.3c0.5,0.2,1,0.4,1.4,0.7
		c0.4,0.3,0.7,0.6,0.9,1s0.3,0.7,0.3,1c0,0.3-0.1,0.6-0.3,0.8c-0.2,0.2-0.5,0.3-0.8,0.3c-0.2,0-0.4-0.1-0.5-0.2
		c-0.1-0.1-0.3-0.3-0.5-0.5c-0.3-0.5-0.6-0.8-1-1.1c-0.3-0.2-0.8-0.4-1.3-0.4c-0.8,0-1.4,0.3-1.8,0.9c-0.5,0.6-0.7,1.4-0.7,2.4
		c0,0.5,0.1,0.9,0.2,1.3c0.1,0.4,0.3,0.7,0.5,1c0.2,0.3,0.5,0.5,0.8,0.6c0.3,0.1,0.7,0.2,1,0.2c0.5,0,0.9-0.1,1.3-0.4s0.7-0.6,1-1.1
		c0.2-0.3,0.3-0.5,0.5-0.7c0.2-0.2,0.4-0.2,0.7-0.2c0.3,0,0.6,0.1,0.8,0.4C86,144.4,86.1,144.6,86.1,144.9z"/>
</g>
<g>
	<path d="M97.3,142.9c0,0.8-0.1,1.5-0.4,2.1s-0.6,1.2-1,1.6c-0.4,0.5-1,0.8-1.6,1.1c-0.6,0.2-1.3,0.4-2.1,0.4
		c-0.8,0-1.5-0.1-2.1-0.4s-1.1-0.6-1.6-1.1c-0.5-0.5-0.8-1-1-1.6c-0.2-0.6-0.3-1.3-0.3-2.1c0-0.8,0.1-1.5,0.4-2.1
		c0.2-0.6,0.6-1.2,1-1.6c0.4-0.5,1-0.8,1.6-1c0.6-0.2,1.3-0.4,2.1-0.4c0.8,0,1.5,0.1,2.1,0.4c0.6,0.2,1.2,0.6,1.6,1.1
		c0.4,0.5,0.8,1,1,1.6C97.1,141.4,97.3,142.1,97.3,142.9z M94.7,142.9c0-1-0.2-1.8-0.7-2.4c-0.5-0.6-1.1-0.9-1.8-0.9
		c-0.5,0-0.9,0.1-1.3,0.4c-0.4,0.3-0.7,0.6-0.9,1.1s-0.3,1.1-0.3,1.8c0,0.7,0.1,1.2,0.3,1.7c0.2,0.5,0.5,0.9,0.9,1.1
		c0.4,0.3,0.8,0.4,1.3,0.4c0.8,0,1.4-0.3,1.8-0.9S94.7,143.9,94.7,142.9z"/>
</g>
<g>
	<path d="M105.3,146.6v-0.3c-0.3,0.4-0.6,0.7-1,1c-0.3,0.3-0.7,0.5-1.1,0.6c-0.4,0.1-0.9,0.2-1.4,0.2c-0.6,0-1.2-0.1-1.7-0.4
		c-0.5-0.3-0.9-0.6-1.1-1.1c-0.3-0.5-0.5-1.3-0.5-2.3v-5c0-0.5,0.1-0.9,0.3-1.1c0.2-0.3,0.5-0.4,0.9-0.4c0.4,0,0.7,0.1,0.9,0.4
		c0.2,0.3,0.4,0.6,0.4,1.1v4.1c0,0.6,0,1.1,0.1,1.5s0.3,0.7,0.5,0.9s0.6,0.3,1,0.3c0.4,0,0.8-0.1,1.2-0.4s0.7-0.6,0.8-1
		c0.1-0.4,0.2-1.1,0.2-2.4v-3.1c0-0.5,0.1-0.9,0.4-1.1c0.2-0.3,0.5-0.4,0.9-0.4s0.7,0.1,0.9,0.4c0.2,0.3,0.3,0.6,0.3,1.1v7.4
		c0,0.5-0.1,0.8-0.3,1.1c-0.2,0.2-0.5,0.4-0.9,0.4c-0.3,0-0.6-0.1-0.9-0.4C105.4,147.4,105.3,147.1,105.3,146.6z"/>
</g>
<g>
	<path d="M112,139.1v0.3c0.4-0.6,0.9-1,1.5-1.3c0.5-0.3,1.1-0.4,1.8-0.4c0.7,0,1.3,0.1,1.8,0.4s0.9,0.7,1.2,1.2
		c0.2,0.3,0.3,0.6,0.3,1c0,0.4,0.1,0.8,0.1,1.4v4.7c0,0.5-0.1,0.9-0.3,1.2c-0.2,0.3-0.5,0.4-0.9,0.4c-0.4,0-0.7-0.1-0.9-0.4
		s-0.4-0.6-0.4-1.1v-4.2c0-0.8-0.1-1.5-0.3-1.9c-0.2-0.4-0.7-0.7-1.4-0.7c-0.5,0-0.9,0.1-1.2,0.4c-0.4,0.3-0.6,0.6-0.8,1.1
		c-0.1,0.4-0.2,1.1-0.2,2.1v3.2c0,0.5-0.1,0.9-0.4,1.2c-0.2,0.3-0.5,0.4-0.9,0.4c-0.4,0-0.7-0.1-0.9-0.4s-0.4-0.6-0.4-1.1v-7.3
		c0-0.5,0.1-0.8,0.3-1.1s0.5-0.4,0.9-0.4c0.2,0,0.4,0.1,0.6,0.2c0.2,0.1,0.3,0.3,0.4,0.5C111.9,138.6,112,138.8,112,139.1z"/>
</g>
<g>
	<path d="M120.8,137.9h0.3v-1.5c0-0.4,0-0.7,0-1c0-0.2,0.1-0.4,0.2-0.6c0.1-0.2,0.2-0.3,0.4-0.4c0.2-0.1,0.4-0.2,0.6-0.2
		c0.3,0,0.6,0.1,0.9,0.4c0.2,0.2,0.3,0.4,0.3,0.6c0,0.2,0.1,0.6,0.1,1v1.7h0.9c0.4,0,0.6,0.1,0.8,0.3c0.2,0.2,0.3,0.4,0.3,0.7
		c0,0.3-0.1,0.6-0.4,0.7c-0.3,0.1-0.7,0.2-1.2,0.2h-0.5v4.7c0,0.4,0,0.7,0,0.9c0,0.2,0.1,0.4,0.2,0.5s0.3,0.2,0.6,0.2
		c0.1,0,0.4,0,0.6-0.1s0.5-0.1,0.6-0.1c0.2,0,0.4,0.1,0.6,0.2c0.2,0.2,0.2,0.4,0.2,0.6c0,0.4-0.2,0.7-0.7,0.9
		c-0.4,0.2-1.1,0.3-1.9,0.3c-0.8,0-1.4-0.1-1.8-0.4c-0.4-0.3-0.7-0.6-0.8-1.1c-0.1-0.5-0.2-1.1-0.2-1.9v-4.9h-0.3
		c-0.4,0-0.6-0.1-0.8-0.3c-0.2-0.2-0.3-0.4-0.3-0.7c0-0.3,0.1-0.5,0.3-0.7C120.1,138,120.4,137.9,120.8,137.9z"/>
</g>
<g>
	<path d="M128.1,136.5c-0.4,0-0.7-0.1-0.9-0.3c-0.3-0.2-0.4-0.5-0.4-0.9c0-0.4,0.1-0.7,0.4-0.9c0.3-0.2,0.6-0.3,0.9-0.3
		c0.3,0,0.6,0.1,0.9,0.3s0.4,0.5,0.4,0.9c0,0.4-0.1,0.7-0.4,0.9C128.8,136.4,128.5,136.5,128.1,136.5z M129.4,139.1v7.3
		c0,0.5-0.1,0.9-0.4,1.2c-0.2,0.3-0.5,0.4-0.9,0.4c-0.4,0-0.7-0.1-0.9-0.4c-0.2-0.3-0.3-0.6-0.3-1.1v-7.3c0-0.5,0.1-0.9,0.3-1.1
		c0.2-0.3,0.5-0.4,0.9-0.4c0.4,0,0.7,0.1,0.9,0.4C129.3,138.3,129.4,138.7,129.4,139.1z"/>
</g>
<g>
	<path d="M133.8,139.1v0.3c0.4-0.6,0.9-1,1.5-1.3c0.5-0.3,1.1-0.4,1.8-0.4c0.7,0,1.3,0.1,1.8,0.4s0.9,0.7,1.2,1.2
		c0.2,0.3,0.3,0.6,0.3,1c0,0.4,0.1,0.8,0.1,1.4v4.7c0,0.5-0.1,0.9-0.3,1.2c-0.2,0.3-0.5,0.4-0.9,0.4c-0.4,0-0.7-0.1-0.9-0.4
		s-0.4-0.6-0.4-1.1v-4.2c0-0.8-0.1-1.5-0.3-1.9c-0.2-0.4-0.7-0.7-1.4-0.7c-0.5,0-0.9,0.1-1.2,0.4c-0.4,0.3-0.6,0.6-0.8,1.1
		c-0.1,0.4-0.2,1.1-0.2,2.1v3.2c0,0.5-0.1,0.9-0.4,1.2c-0.2,0.3-0.5,0.4-0.9,0.4c-0.4,0-0.7-0.1-0.9-0.4s-0.4-0.6-0.4-1.1v-7.3
		c0-0.5,0.1-0.8,0.3-1.1s0.5-0.4,0.9-0.4c0.2,0,0.4,0.1,0.6,0.2c0.2,0.1,0.3,0.3,0.4,0.5C133.7,138.6,133.8,138.8,133.8,139.1z"/>
</g>
<g>
	<path d="M151.8,139.6v7.4c0,0.8-0.1,1.6-0.3,2.2c-0.2,0.6-0.5,1.1-0.9,1.5s-0.9,0.7-1.6,0.9s-1.4,0.3-2.4,0.3
		c-0.9,0-1.7-0.1-2.3-0.4c-0.7-0.2-1.2-0.6-1.6-0.9c-0.4-0.4-0.6-0.8-0.6-1.2c0-0.3,0.1-0.6,0.3-0.8s0.5-0.3,0.8-0.3
		c0.4,0,0.7,0.2,1,0.5c0.1,0.2,0.3,0.3,0.4,0.5c0.1,0.2,0.3,0.3,0.5,0.4c0.2,0.1,0.4,0.2,0.6,0.3s0.5,0.1,0.9,0.1
		c0.7,0,1.2-0.1,1.5-0.3s0.6-0.4,0.8-0.8c0.1-0.3,0.2-0.7,0.3-1.1c0-0.4,0-1,0.1-1.8c-0.4,0.5-0.8,1-1.4,1.2
		c-0.5,0.3-1.1,0.4-1.8,0.4c-0.9,0-1.6-0.2-2.2-0.7c-0.6-0.4-1.1-1-1.5-1.8s-0.5-1.7-0.5-2.7c0-0.8,0.1-1.5,0.3-2.1s0.5-1.1,0.9-1.6
		c0.4-0.4,0.8-0.7,1.3-1c0.5-0.2,1.1-0.3,1.7-0.3c0.7,0,1.3,0.1,1.9,0.4c0.5,0.3,1,0.7,1.5,1.3v-0.3c0-0.4,0.1-0.8,0.3-1
		c0.2-0.2,0.5-0.4,0.8-0.4c0.5,0,0.8,0.2,1,0.5C151.7,138.5,151.8,139,151.8,139.6z M144.4,142.8c0,1,0.2,1.8,0.7,2.3s1,0.8,1.7,0.8
		c0.4,0,0.8-0.1,1.2-0.3s0.7-0.6,0.9-1c0.2-0.5,0.4-1,0.4-1.7c0-1-0.2-1.8-0.7-2.4c-0.5-0.6-1.1-0.9-1.8-0.9c-0.7,0-1.3,0.3-1.7,0.8
		C144.6,141,144.4,141.8,144.4,142.8z"/>
</g>
<g>
	<path d="M168.5,136.4v9.9h5.6c0.4,0,0.8,0.1,1,0.3c0.2,0.2,0.4,0.5,0.4,0.8c0,0.3-0.1,0.6-0.4,0.8c-0.2,0.2-0.6,0.3-1,0.3h-6.7
		c-0.6,0-1-0.1-1.3-0.4c-0.3-0.3-0.4-0.7-0.4-1.3v-10.5c0-0.6,0.1-1,0.4-1.3c0.3-0.3,0.6-0.4,1-0.4c0.4,0,0.8,0.1,1,0.4
		C168.3,135.5,168.5,135.9,168.5,136.4z"/>
	<path d="M184.2,144.3h-5c0,0.6,0.1,1.1,0.3,1.5s0.5,0.8,0.9,1c0.4,0.2,0.8,0.3,1.2,0.3c0.3,0,0.6,0,0.8-0.1
		c0.2-0.1,0.5-0.2,0.7-0.3c0.2-0.2,0.5-0.3,0.7-0.5s0.5-0.4,0.8-0.7c0.1-0.1,0.3-0.2,0.6-0.2c0.3,0,0.5,0.1,0.6,0.2
		c0.2,0.1,0.2,0.3,0.2,0.6c0,0.2-0.1,0.5-0.3,0.8s-0.5,0.6-0.8,0.9s-0.8,0.5-1.4,0.7s-1.2,0.3-1.9,0.3c-1.6,0-2.9-0.5-3.8-1.4
		s-1.4-2.2-1.4-3.8c0-0.8,0.1-1.4,0.3-2.1c0.2-0.6,0.5-1.2,1-1.7c0.4-0.5,1-0.8,1.6-1.1c0.6-0.2,1.3-0.4,2.1-0.4
		c1,0,1.8,0.2,2.6,0.6c0.7,0.4,1.2,1,1.6,1.6c0.4,0.7,0.5,1.3,0.5,2c0,0.6-0.2,1.1-0.5,1.2C185.4,144.2,184.9,144.3,184.2,144.3z
		 M179.2,142.9h4.6c-0.1-0.9-0.3-1.5-0.7-1.9s-0.9-0.6-1.6-0.6c-0.6,0-1.2,0.2-1.6,0.7S179.3,142,179.2,142.9z"/>
</g>
<g>
	<path d="M197.5,140.4v7.4c0,0.8-0.1,1.6-0.3,2.2c-0.2,0.6-0.5,1.1-0.9,1.5c-0.4,0.4-0.9,0.7-1.6,0.9c-0.6,0.2-1.4,0.3-2.4,0.3
		c-0.9,0-1.7-0.1-2.3-0.4c-0.7-0.2-1.2-0.6-1.6-0.9s-0.6-0.8-0.6-1.2c0-0.3,0.1-0.6,0.3-0.8s0.5-0.3,0.8-0.3c0.4,0,0.7,0.2,1,0.5
		c0.1,0.2,0.3,0.3,0.4,0.5c0.1,0.2,0.3,0.3,0.5,0.4c0.2,0.1,0.4,0.2,0.6,0.3s0.5,0.1,0.9,0.1c0.7,0,1.2-0.1,1.5-0.3
		c0.4-0.2,0.6-0.4,0.8-0.8c0.1-0.3,0.2-0.7,0.3-1.1c0-0.4,0-1,0.1-1.8c-0.4,0.5-0.8,1-1.4,1.2c-0.5,0.3-1.1,0.4-1.8,0.4
		c-0.9,0-1.6-0.2-2.2-0.7c-0.6-0.4-1.1-1-1.5-1.8c-0.3-0.8-0.5-1.7-0.5-2.7c0-0.8,0.1-1.5,0.3-2.1c0.2-0.6,0.5-1.1,0.9-1.6
		s0.8-0.7,1.3-1c0.5-0.2,1.1-0.3,1.7-0.3c0.7,0,1.3,0.1,1.9,0.4c0.5,0.3,1,0.7,1.5,1.3v-0.3c0-0.4,0.1-0.8,0.3-1
		c0.2-0.2,0.5-0.4,0.8-0.4c0.5,0,0.8,0.2,1,0.5C197.4,139.3,197.5,139.8,197.5,140.4z M190.2,143.6c0,1,0.2,1.8,0.7,2.3
		c0.4,0.5,1,0.8,1.7,0.8c0.4,0,0.8-0.1,1.2-0.3s0.7-0.6,0.9-1c0.2-0.5,0.4-1,0.4-1.7c0-1-0.2-1.8-0.7-2.4c-0.5-0.6-1.1-0.9-1.8-0.9
		c-0.7,0-1.3,0.3-1.7,0.8C190.4,141.8,190.2,142.6,190.2,143.6z"/>
</g>
<g>
	<path d="M206,147.4c-0.6,0.5-1.2,0.8-1.8,1.1c-0.6,0.2-1.2,0.4-1.9,0.4c-0.7,0-1.2-0.1-1.7-0.4c-0.5-0.3-0.9-0.6-1.1-1
		c-0.3-0.4-0.4-0.9-0.4-1.4c0-0.7,0.2-1.3,0.7-1.8c0.4-0.5,1-0.8,1.8-1c0.2,0,0.6-0.1,1.2-0.3c0.6-0.1,1.2-0.2,1.6-0.4
		s1-0.2,1.5-0.4c0-0.7-0.2-1.2-0.4-1.5c-0.2-0.3-0.7-0.5-1.5-0.5c-0.6,0-1.1,0.1-1.5,0.3c-0.3,0.2-0.6,0.4-0.8,0.8s-0.4,0.6-0.5,0.7
		c-0.1,0.1-0.3,0.2-0.6,0.2c-0.3,0-0.5-0.1-0.7-0.3c-0.2-0.2-0.3-0.4-0.3-0.7c0-0.4,0.2-0.9,0.5-1.3s0.8-0.8,1.5-1
		c0.7-0.3,1.5-0.4,2.5-0.4c1.1,0,2,0.1,2.6,0.4c0.6,0.3,1.1,0.7,1.4,1.3c0.3,0.6,0.4,1.3,0.4,2.3c0,0.6,0,1.1,0,1.5s0,0.9,0,1.4
		c0,0.5,0.1,1,0.2,1.5s0.2,0.9,0.2,1c0,0.3-0.1,0.5-0.4,0.7s-0.5,0.3-0.8,0.3c-0.3,0-0.5-0.1-0.8-0.4
		C206.6,148.3,206.3,147.9,206,147.4z M205.9,143.8c-0.4,0.1-0.9,0.3-1.6,0.4c-0.7,0.2-1.2,0.3-1.5,0.3c-0.3,0.1-0.5,0.2-0.8,0.4
		s-0.4,0.5-0.4,0.9c0,0.4,0.1,0.7,0.4,1c0.3,0.3,0.7,0.4,1.1,0.4c0.5,0,1-0.1,1.4-0.3c0.4-0.2,0.7-0.5,0.9-0.9
		c0.2-0.4,0.3-1,0.3-1.9V143.8z"/>
	<path d="M210.9,147.3v-11c0-0.5,0.1-0.9,0.3-1.2c0.2-0.3,0.5-0.4,0.9-0.4s0.7,0.1,0.9,0.4c0.2,0.3,0.4,0.6,0.4,1.2v11
		c0,0.5-0.1,0.9-0.4,1.2c-0.2,0.3-0.5,0.4-0.9,0.4c-0.4,0-0.7-0.1-0.9-0.4S210.9,147.8,210.9,147.3z"/>
</g>
<g>
	<path d="M234.5,136.4l5.3,8v-8.1c0-0.5,0.1-0.9,0.3-1.2s0.5-0.4,0.9-0.4c0.4,0,0.7,0.1,0.9,0.4c0.2,0.3,0.3,0.7,0.3,1.2v10.7
		c0,1.2-0.5,1.8-1.5,1.8c-0.2,0-0.5,0-0.7-0.1c-0.2-0.1-0.4-0.2-0.6-0.3c-0.2-0.2-0.3-0.3-0.5-0.5c-0.1-0.2-0.3-0.4-0.4-0.6
		l-5.2-7.9v8c0,0.5-0.1,0.9-0.4,1.2c-0.2,0.3-0.6,0.4-0.9,0.4c-0.4,0-0.7-0.1-0.9-0.4c-0.2-0.3-0.4-0.7-0.4-1.2v-10.5
		c0-0.4,0-0.8,0.1-1.1c0.1-0.3,0.3-0.5,0.6-0.7c0.3-0.2,0.6-0.3,0.9-0.3c0.2,0,0.5,0,0.6,0.1c0.2,0.1,0.3,0.2,0.5,0.3
		c0.1,0.1,0.3,0.3,0.4,0.5S234.4,136.2,234.5,136.4z"/>
	<path d="M254.7,143.7c0,0.8-0.1,1.5-0.4,2.1c-0.2,0.6-0.6,1.2-1,1.6c-0.4,0.5-1,0.8-1.6,1.1c-0.6,0.2-1.3,0.4-2.1,0.4
		c-0.8,0-1.5-0.1-2.1-0.4s-1.1-0.6-1.6-1.1c-0.5-0.5-0.8-1-1-1.6c-0.2-0.6-0.3-1.3-0.3-2.1c0-0.8,0.1-1.5,0.4-2.1
		c0.2-0.6,0.6-1.2,1-1.6c0.4-0.5,1-0.8,1.6-1c0.6-0.2,1.3-0.4,2.1-0.4c0.8,0,1.5,0.1,2.1,0.4c0.6,0.2,1.2,0.6,1.6,1.1
		c0.4,0.5,0.8,1,1,1.6S254.7,143,254.7,143.7z M252.2,143.7c0-1-0.2-1.8-0.7-2.4c-0.5-0.6-1.1-0.9-1.8-0.9c-0.5,0-0.9,0.1-1.3,0.4
		c-0.4,0.3-0.7,0.6-0.9,1.1s-0.3,1.1-0.3,1.8c0,0.7,0.1,1.2,0.3,1.7c0.2,0.5,0.5,0.9,0.9,1.1c0.4,0.3,0.8,0.4,1.3,0.4
		c0.8,0,1.4-0.3,1.8-0.9S252.2,144.7,252.2,143.7z"/>
	<path d="M256.9,138.8h0.3v-1.5c0-0.4,0-0.7,0-1c0-0.2,0.1-0.4,0.2-0.6c0.1-0.2,0.2-0.3,0.4-0.4c0.2-0.1,0.4-0.2,0.6-0.2
		c0.3,0,0.6,0.1,0.9,0.4c0.2,0.2,0.3,0.4,0.3,0.6c0,0.2,0.1,0.6,0.1,1v1.7h0.9c0.4,0,0.6,0.1,0.8,0.3c0.2,0.2,0.3,0.4,0.3,0.7
		c0,0.3-0.1,0.6-0.4,0.7c-0.3,0.1-0.7,0.2-1.2,0.2h-0.5v4.7c0,0.4,0,0.7,0,0.9c0,0.2,0.1,0.4,0.2,0.5s0.3,0.2,0.6,0.2
		c0.1,0,0.4,0,0.6-0.1c0.3-0.1,0.5-0.1,0.6-0.1c0.2,0,0.4,0.1,0.6,0.2c0.2,0.2,0.2,0.4,0.2,0.6c0,0.4-0.2,0.7-0.7,0.9
		c-0.4,0.2-1.1,0.3-1.9,0.3c-0.8,0-1.4-0.1-1.8-0.4c-0.4-0.3-0.7-0.6-0.8-1.1s-0.2-1.1-0.2-1.9v-4.9h-0.3c-0.4,0-0.6-0.1-0.8-0.3
		c-0.2-0.2-0.3-0.4-0.3-0.7c0-0.3,0.1-0.5,0.3-0.7C256.2,138.9,256.5,138.8,256.9,138.8z"/>
	<path d="M269.9,147.4c-0.6,0.5-1.2,0.8-1.8,1.1c-0.6,0.2-1.2,0.4-1.9,0.4c-0.7,0-1.2-0.1-1.7-0.4c-0.5-0.3-0.9-0.6-1.1-1
		c-0.3-0.4-0.4-0.9-0.4-1.4c0-0.7,0.2-1.3,0.7-1.8c0.4-0.5,1-0.8,1.8-1c0.2,0,0.6-0.1,1.2-0.3c0.6-0.1,1.2-0.2,1.6-0.4
		s1-0.2,1.5-0.4c0-0.7-0.2-1.2-0.4-1.5c-0.2-0.3-0.7-0.5-1.5-0.5c-0.6,0-1.1,0.1-1.5,0.3c-0.3,0.2-0.6,0.4-0.8,0.8s-0.4,0.6-0.5,0.7
		c-0.1,0.1-0.3,0.2-0.6,0.2c-0.3,0-0.5-0.1-0.7-0.3c-0.2-0.2-0.3-0.4-0.3-0.7c0-0.4,0.2-0.9,0.5-1.3s0.8-0.8,1.5-1
		c0.7-0.3,1.5-0.4,2.5-0.4c1.1,0,2,0.1,2.6,0.4c0.6,0.3,1.1,0.7,1.4,1.3c0.3,0.6,0.4,1.3,0.4,2.3c0,0.6,0,1.1,0,1.5s0,0.9,0,1.4
		c0,0.5,0.1,1,0.2,1.5s0.2,0.9,0.2,1c0,0.3-0.1,0.5-0.4,0.7s-0.5,0.3-0.8,0.3c-0.3,0-0.5-0.1-0.8-0.4
		C270.4,148.3,270.2,147.9,269.9,147.4z M269.7,143.8c-0.4,0.1-0.9,0.3-1.6,0.4c-0.7,0.2-1.2,0.3-1.5,0.3c-0.3,0.1-0.5,0.2-0.8,0.4
		s-0.4,0.5-0.4,0.9c0,0.4,0.1,0.7,0.4,1c0.3,0.3,0.7,0.4,1.1,0.4c0.5,0,1-0.1,1.4-0.3c0.4-0.2,0.7-0.5,0.9-0.9
		c0.2-0.4,0.3-1,0.3-1.9V143.8z"/>
	<path d="M277.3,145.2v2.1c0,0.5-0.1,0.9-0.4,1.2c-0.2,0.3-0.5,0.4-0.9,0.4c-0.4,0-0.7-0.1-0.9-0.4c-0.2-0.3-0.4-0.6-0.4-1.2v-7.1
		c0-1.1,0.4-1.7,1.2-1.7c0.4,0,0.7,0.1,0.9,0.4c0.2,0.3,0.3,0.7,0.3,1.2c0.3-0.5,0.6-0.9,0.9-1.2c0.3-0.3,0.7-0.4,1.3-0.4
		c0.5,0,1.1,0.1,1.6,0.4c0.5,0.3,0.8,0.6,0.8,1.1c0,0.3-0.1,0.6-0.3,0.8c-0.2,0.2-0.4,0.3-0.7,0.3c-0.1,0-0.3-0.1-0.7-0.2
		c-0.4-0.1-0.7-0.2-0.9-0.2c-0.4,0-0.7,0.1-0.9,0.3c-0.2,0.2-0.4,0.5-0.5,0.9s-0.2,0.8-0.3,1.4C277.3,143.8,277.3,144.5,277.3,145.2
		z"/>
	<path d="M285.5,149.2l0.2-0.6l-3.1-7.9c-0.2-0.5-0.3-0.8-0.3-1c0-0.2,0.1-0.4,0.2-0.6c0.1-0.2,0.3-0.3,0.5-0.4s0.4-0.2,0.6-0.2
		c0.4,0,0.6,0.1,0.8,0.3c0.2,0.2,0.4,0.6,0.5,1l2.1,6.3l2-5.8c0.2-0.5,0.3-0.8,0.4-1.1c0.1-0.3,0.3-0.4,0.4-0.5
		c0.1-0.1,0.4-0.1,0.6-0.1c0.2,0,0.4,0.1,0.6,0.2c0.2,0.1,0.3,0.2,0.4,0.4c0.1,0.2,0.1,0.4,0.1,0.5c0,0.1-0.1,0.3-0.1,0.5
		c-0.1,0.2-0.1,0.4-0.2,0.7l-3.3,8.7c-0.3,0.8-0.6,1.4-0.8,1.8c-0.3,0.4-0.6,0.8-1.1,1c-0.5,0.2-1.1,0.3-1.8,0.3
		c-0.7,0-1.3-0.1-1.7-0.2c-0.4-0.2-0.6-0.5-0.6-0.9c0-0.3,0.1-0.5,0.3-0.7s0.4-0.2,0.8-0.2c0.1,0,0.3,0,0.4,0.1
		c0.2,0,0.3,0.1,0.4,0.1c0.3,0,0.5,0,0.7-0.1c0.2-0.1,0.3-0.2,0.5-0.5C285.2,149.9,285.3,149.6,285.5,149.2z"/>
</g>
<g>
	<path class="st8" d="M218.9,139.4c0-0.4,0.1-0.8,0.3-1.1s0.5-0.6,0.9-0.8s0.9-0.3,1.5-0.3c0.6,0,1,0.1,1.4,0.3s0.7,0.5,0.9,0.8
		c0.2,0.3,0.3,0.7,0.3,1c0,0.5-0.2,0.9-0.5,1.3c-0.3,0.4-0.8,0.7-1.4,1.1c0.2,0.3,0.4,0.5,0.6,0.7s0.4,0.4,0.5,0.6
		c0.2,0.2,0.3,0.4,0.5,0.5c0.1-0.1,0.2-0.4,0.3-0.7c0.1-0.3,0.3-0.6,0.4-0.7c0.1-0.1,0.3-0.2,0.5-0.2c0.2,0,0.4,0.1,0.5,0.2
		c0.2,0.1,0.2,0.3,0.2,0.5c0,0.2-0.1,0.5-0.2,0.8c-0.1,0.4-0.3,0.7-0.6,1.2c0.2,0.1,0.4,0.4,0.8,0.6c0.4,0.3,0.6,0.5,0.7,0.6
		c0.1,0.1,0.1,0.2,0.1,0.4c0,0.2-0.1,0.4-0.2,0.6s-0.3,0.2-0.6,0.2c-0.2,0-0.4-0.1-0.6-0.2c-0.2-0.1-0.6-0.5-1.2-1
		c-0.3,0.3-0.6,0.5-0.9,0.7c-0.3,0.2-0.6,0.3-1,0.4c-0.3,0.1-0.7,0.1-1.2,0.1c-0.6,0-1-0.1-1.5-0.2c-0.4-0.2-0.8-0.4-1.1-0.7
		c-0.3-0.3-0.5-0.6-0.6-0.9c-0.1-0.3-0.2-0.7-0.2-1c0-0.3,0.1-0.6,0.2-0.9c0.1-0.3,0.3-0.5,0.4-0.7c0.2-0.2,0.4-0.4,0.7-0.6
		c0.3-0.2,0.6-0.4,1-0.6c-0.3-0.4-0.6-0.8-0.8-1.1S218.9,139.7,218.9,139.4z M220.8,142.6c-0.4,0.3-0.8,0.5-1,0.8
		c-0.2,0.3-0.3,0.6-0.3,0.9c0,0.2,0,0.4,0.1,0.6s0.2,0.4,0.4,0.5s0.3,0.3,0.5,0.4c0.2,0.1,0.4,0.1,0.7,0.1c0.2,0,0.4,0,0.7-0.1
		c0.2-0.1,0.4-0.2,0.6-0.3c0.2-0.1,0.4-0.3,0.6-0.5c-0.4-0.4-0.7-0.7-1.1-1.1C221.6,143.5,221.2,143.1,220.8,142.6z M221.5,140.7
		c0.4-0.3,0.8-0.5,1-0.7s0.3-0.4,0.3-0.7c0-0.3-0.1-0.5-0.3-0.7s-0.5-0.3-0.8-0.3c-0.3,0-0.6,0.1-0.8,0.3s-0.3,0.4-0.3,0.7
		c0,0.1,0,0.3,0.1,0.4s0.2,0.3,0.3,0.5C221.1,140.3,221.3,140.5,221.5,140.7z"/>
</g>
<polygon class="st8" points="49.4,142.3 48.4,143.5 46.6,145.9 44.1,145.9 46.9,142.3 44.1,138.7 46.6,138.7 48.4,141.2 "/>
<polygon class="st8" points="161.2,142.3 160.3,143.5 158.5,145.9 156,145.9 158.7,142.3 155.9,138.7 158.4,138.7 160.3,141.2 "/>
<path class="st8" d="M181.7,118.5l7.3,9.7c7.1,0,14.3,0,21.4,0c1.8-0.7,2.5-1.8,2-3.3l-17.6-22.6L181.7,118.5z"/>
<path class="st14" d="M194.8,80c5.9-7.6,11.8-15.1,17.8-22.7c0.6-1.9-0.1-3.1-1.9-3.7h-21.1l-7.7,10.3L194.8,80z"/>
<g>
	<path d="M272.2,121c-3.1,4.2-12.1,9.1-22.7,9.1c-23.7,0-37.5-17.6-37.5-39s13.9-39,37.5-39c10.9,0,18.9,4.4,22.7,9.4v-7.8h20.1
		v74.8h-20.1V121z M252.5,69.9c-12.9,0-20.5,9-20.5,21.2c0,11.8,8,21.1,20.5,21.1c12.7,0,20.5-8,20.5-21.1
		C273,78.7,265.1,69.9,252.5,69.9z"/>
</g>
<g>
	<path d="M129,84v44.2h-20.5V84c0-11.6-6.7-15.1-14.6-15.1c-5.6,0-14.1,3.4-14.3,17.7v41.6H59.1V84c0-11.6-6.8-15.1-14.4-15.1
		c-6.3,0-14.4,3.4-14.4,19.7l-0.1,39.6H9.8V53.4h20.3v6.8c5.2-4.6,13.6-8.2,19.7-8.2c11.4,0,18.9,3.8,24.1,10.2
		C79.5,56,87.9,52,98,52C119.5,52,129,64.6,129,84z"/>
</g>
<path class="st14" d="M160.5,91.2l12.8,16.2l-15.7,20.8c-7.1,0-14.3,0-21.4,0c-1.8-0.7-2.5-1.8-2-3.3L160.5,91.2z"/>
<path class="st8" d="M160.5,91.2c-8.8-11.3-17.7-22.5-26.5-33.8c-0.6-1.9,0.1-3.1,1.9-3.7h21.1l16.3,21.7L160.5,91.2z"/>
<polygon class="st15" points="173.3,107.3 186,91.2 173.3,75.3 160.5,91.2 171.7,105.4 "/>
<path class="st8" d="M329.9,36.2c-4-5.2-8.1-10.3-12.1-15.5c-0.3-0.9,0.1-1.4,0.9-1.7h9.7l7.5,10l5.9,7.3l-5.9,7.4l-2-2.5l2,2.5
	l-7.2,9.5c-3.3,0-6.5,0-9.8,0c-0.8-0.3-1.2-0.8-0.9-1.5L329.9,36.2z"/>
<path d="M317.3,36.2L317.3,36.2c-2.9-3.8-5.9-7.6-8.9-11.3c-0.2-0.7,0-1,0.6-1.2h7.1l5.4,7.3l4.3,5.3l-4.3,5.4v0l-5.2,7
	c-2.4,0-4.8,0-7.2,0c-0.6-0.2-0.9-0.6-0.7-1.1L317.3,36.2z"/>
</svg>
